# Tiled2Unity generated file. Do not modify by hand.
# Wavefront file for 'overfinal_mesh_0019.obj'

# Vertices (Count = 208)
v -1024 -512 0
v -1040 -512 0
v -1040 -496 0
v -1024 -496 0
v -1008 -512 0
v -1024 -512 0
v -1024 -496 0
v -1008 -496 0
v -992 -512 0
v -1008 -512 0
v -1008 -496 0
v -992 -496 0
v -752 -512 0
v -768 -512 0
v -768 -496 0
v -752 -496 0
v -736 -512 0
v -752 -512 0
v -752 -496 0
v -736 -496 0
v -720 -512 0
v -736 -512 0
v -736 -496 0
v -720 -496 0
v -1040 -528 0
v -1056 -528 0
v -1056 -512 0
v -1040 -512 0
v -1024 -528 0
v -1040 -528 0
v -1040 -512 0
v -1024 -512 0
v -992 -528 0
v -1008 -528 0
v -1008 -512 0
v -992 -512 0
v -976 -528 0
v -992 -528 0
v -992 -512 0
v -976 -512 0
v -752 -528 0
v -768 -528 0
v -768 -512 0
v -752 -512 0
v -736 -528 0
v -752 -528 0
v -752 -512 0
v -736 -512 0
v -720 -528 0
v -736 -528 0
v -736 -512 0
v -720 -512 0
v -1136 -544 0
v -1152 -544 0
v -1152 -528 0
v -1136 -528 0
v -1120 -544 0
v -1136 -544 0
v -1136 -528 0
v -1120 -528 0
v -1104 -544 0
v -1120 -544 0
v -1120 -528 0
v -1104 -528 0
v -1088 -544 0
v -1104 -544 0
v -1104 -528 0
v -1088 -528 0
v -1040 -544 0
v -1056 -544 0
v -1056 -528 0
v -1040 -528 0
v -976 -544 0
v -992 -544 0
v -992 -528 0
v -976 -528 0
v -752 -544 0
v -768 -544 0
v -768 -528 0
v -752 -528 0
v -720 -544 0
v -736 -544 0
v -736 -528 0
v -720 -528 0
v -1136 -560 0
v -1152 -560 0
v -1152 -544 0
v -1136 -544 0
v -1120 -560 0
v -1136 -560 0
v -1136 -544 0
v -1120 -544 0
v -1104 -560 0
v -1120 -560 0
v -1120 -544 0
v -1104 -544 0
v -1088 -560 0
v -1104 -560 0
v -1104 -544 0
v -1088 -544 0
v -1040 -560 0
v -1056 -560 0
v -1056 -544 0
v -1040 -544 0
v -1024 -560 0
v -1040 -560 0
v -1040 -544 0
v -1024 -544 0
v -1008 -560 0
v -1024 -560 0
v -1024 -544 0
v -1008 -544 0
v -992 -560 0
v -1008 -560 0
v -1008 -544 0
v -992 -544 0
v -976 -560 0
v -992 -560 0
v -992 -544 0
v -976 -544 0
v -784 -560 0
v -800 -560 0
v -800 -544 0
v -784 -544 0
v -768 -560 0
v -784 -560 0
v -784 -544 0
v -768 -544 0
v -736 -560 0
v -752 -560 0
v -752 -544 0
v -736 -544 0
v -1136 -576 0
v -1152 -576 0
v -1152 -560 0
v -1136 -560 0
v -1088 -576 0
v -1104 -576 0
v -1104 -560 0
v -1088 -560 0
v -1024 -576 0
v -1040 -576 0
v -1040 -560 0
v -1024 -560 0
v -992 -576 0
v -1008 -576 0
v -1008 -560 0
v -992 -560 0
v -784 -576 0
v -800 -576 0
v -800 -560 0
v -784 -560 0
v -768 -576 0
v -784 -576 0
v -784 -560 0
v -768 -560 0
v -1136 -592 0
v -1152 -592 0
v -1152 -576 0
v -1136 -576 0
v -1120 -592 0
v -1136 -592 0
v -1136 -576 0
v -1120 -576 0
v -1104 -592 0
v -1120 -592 0
v -1120 -576 0
v -1104 -576 0
v -1088 -592 0
v -1104 -592 0
v -1104 -576 0
v -1088 -576 0
v -1008 -592 0
v -1024 -592 0
v -1024 -576 0
v -1008 -576 0
v -736 -592 0
v -752 -592 0
v -752 -576 0
v -736 -576 0
v -1136 -608 0
v -1152 -608 0
v -1152 -592 0
v -1136 -592 0
v -1120 -608 0
v -1136 -608 0
v -1136 -592 0
v -1120 -592 0
v -1104 -608 0
v -1120 -608 0
v -1120 -592 0
v -1104 -592 0
v -1088 -608 0
v -1104 -608 0
v -1104 -592 0
v -1088 -592 0
v -928 -608 0
v -944 -608 0
v -944 -592 0
v -928 -592 0
v -288 -960 0
v -304 -960 0
v -304 -944 0
v -288 -944 0
v -64 -992 0
v -80 -992 0
v -80 -976 0
v -64 -976 0

# Texture cooridinates (Count = 116)
vt 0.3688017 0.2908745
vt 0.3853306 0.2908745
vt 0.3853306 0.3212928
vt 0.3688017 0.3212928
vt 0.4390496 0.2908745
vt 0.4555785 0.2908745
vt 0.4555785 0.3212928
vt 0.4390496 0.3212928
vt 0.3512397 0.2908745
vt 0.3677686 0.2908745
vt 0.3677686 0.3212928
vt 0.3512397 0.3212928
vt 0.2458678 0.2908745
vt 0.2623967 0.2908745
vt 0.2623967 0.3212928
vt 0.2458678 0.3212928
vt 0.3161157 0.2908745
vt 0.3326446 0.2908745
vt 0.3326446 0.3212928
vt 0.3161157 0.3212928
vt 0.2283058 0.2908745
vt 0.2448347 0.2908745
vt 0.2448347 0.3212928
vt 0.2283058 0.3212928
vt 0.3688017 0.2262357
vt 0.3853306 0.2262357
vt 0.3853306 0.256654
vt 0.3688017 0.256654
vt 0.3512397 0.2262357
vt 0.3677686 0.2262357
vt 0.3677686 0.256654
vt 0.3512397 0.256654
vt 0.2458678 0.2585551
vt 0.2623967 0.2585551
vt 0.2623967 0.2889734
vt 0.2458678 0.2889734
vt 0.3161157 0.2585551
vt 0.3326446 0.2585551
vt 0.3326446 0.2889734
vt 0.3161157 0.2889734
vt 0.2283058 0.2585551
vt 0.2448347 0.2585551
vt 0.2448347 0.2889734
vt 0.2283058 0.2889734
vt 0.2458678 0.2262357
vt 0.2623967 0.2262357
vt 0.2623967 0.256654
vt 0.2458678 0.256654
vt 0.2283058 0.2262357
vt 0.2448347 0.2262357
vt 0.2448347 0.256654
vt 0.2283058 0.256654
vt 0.9307851 0.8079848
vt 0.947314 0.8079848
vt 0.947314 0.838403
vt 0.9307851 0.838403
vt 0.9132231 0.8079848
vt 0.9297521 0.8079848
vt 0.9297521 0.838403
vt 0.9132231 0.838403
vt 0.8956612 0.8079848
vt 0.9121901 0.8079848
vt 0.9121901 0.838403
vt 0.8956612 0.838403
vt 0.2634298 0.6463878
vt 0.2799587 0.6463878
vt 0.2799587 0.6768061
vt 0.2634298 0.6768061
vt 0.8254132 0.8079848
vt 0.8419421 0.8079848
vt 0.8419421 0.838403
vt 0.8254132 0.838403
vt 0.7024794 0.8403042
vt 0.7190083 0.8403042
vt 0.7190083 0.8707224
vt 0.7024794 0.8707224
vt 0.2634298 0.6140684
vt 0.2799587 0.6140684
vt 0.2799587 0.6444867
vt 0.2634298 0.6444867
vt 0.3336777 0.2585551
vt 0.3502066 0.2585551
vt 0.3502066 0.2889734
vt 0.3336777 0.2889734
vt 0.2985537 0.2585551
vt 0.3150826 0.2585551
vt 0.3150826 0.2889734
vt 0.2985537 0.2889734
vt 0.6322314 0.8726236
vt 0.6487603 0.8726236
vt 0.6487603 0.9030418
vt 0.6322314 0.9030418
vt 0.7902893 0.743346
vt 0.8068182 0.743346
vt 0.8068182 0.7737643
vt 0.7902893 0.7737643
vt 0.3336777 0.2262357
vt 0.3502066 0.2262357
vt 0.3502066 0.256654
vt 0.3336777 0.256654
vt 0.3161157 0.2262357
vt 0.3326446 0.2262357
vt 0.3326446 0.256654
vt 0.3161157 0.256654
vt 0.2985537 0.2262357
vt 0.3150826 0.2262357
vt 0.3150826 0.256654
vt 0.2985537 0.256654
vt 0.3336777 0.9695817
vt 0.3502066 0.9695817
vt 0.3502066 1
vt 0.3336777 1
vt 0.01756198 0.743346
vt 0.03409091 0.743346
vt 0.03409091 0.7737643
vt 0.01756198 0.7737643

# Normal
vn 0 0 -1

# Mesh description
g overfinal_mesh_0019

# Faces
f 1/1/1 2/2/1 3/3/1 4/4/1
f 5/5/1 6/6/1 7/7/1 8/8/1
f 9/9/1 10/10/1 11/11/1 12/12/1
f 13/13/1 14/14/1 15/15/1 16/16/1
f 17/17/1 18/18/1 19/19/1 20/20/1
f 21/21/1 22/22/1 23/23/1 24/24/1
f 25/1/1 26/2/1 27/3/1 28/4/1
f 29/25/1 30/26/1 31/27/1 32/28/1
f 33/29/1 34/30/1 35/31/1 36/32/1
f 37/9/1 38/10/1 39/11/1 40/12/1
f 41/33/1 42/34/1 43/35/1 44/36/1
f 45/37/1 46/38/1 47/39/1 48/40/1
f 49/41/1 50/42/1 51/43/1 52/44/1
f 53/13/1 54/14/1 55/15/1 56/16/1
f 57/17/1 58/18/1 59/19/1 60/20/1
f 61/17/1 62/18/1 63/19/1 64/20/1
f 65/21/1 66/22/1 67/23/1 68/24/1
f 69/25/1 70/26/1 71/27/1 72/28/1
f 73/29/1 74/30/1 75/31/1 76/32/1
f 77/45/1 78/46/1 79/47/1 80/48/1
f 81/49/1 82/50/1 83/51/1 84/52/1
f 85/33/1 86/34/1 87/35/1 88/36/1
f 89/37/1 90/38/1 91/39/1 92/40/1
f 93/37/1 94/38/1 95/39/1 96/40/1
f 97/41/1 98/42/1 99/43/1 100/44/1
f 101/53/1 102/54/1 103/55/1 104/56/1
f 105/57/1 106/58/1 107/59/1 108/60/1
f 109/57/1 110/58/1 111/59/1 112/60/1
f 113/57/1 114/58/1 115/59/1 116/60/1
f 117/61/1 118/62/1 119/63/1 120/64/1
f 121/65/1 122/66/1 123/67/1 124/68/1
f 125/65/1 126/66/1 127/67/1 128/68/1
f 129/69/1 130/70/1 131/71/1 132/72/1
f 133/45/1 134/46/1 135/47/1 136/48/1
f 137/49/1 138/50/1 139/51/1 140/52/1
f 141/73/1 142/74/1 143/75/1 144/76/1
f 145/73/1 146/74/1 147/75/1 148/76/1
f 149/77/1 150/78/1 151/79/1 152/80/1
f 153/77/1 154/78/1 155/79/1 156/80/1
f 157/81/1 158/82/1 159/83/1 160/84/1
f 161/37/1 162/38/1 163/39/1 164/40/1
f 165/37/1 166/38/1 167/39/1 168/40/1
f 169/85/1 170/86/1 171/87/1 172/88/1
f 173/89/1 174/90/1 175/91/1 176/92/1
f 177/93/1 178/94/1 179/95/1 180/96/1
f 181/97/1 182/98/1 183/99/1 184/100/1
f 185/101/1 186/102/1 187/103/1 188/104/1
f 189/101/1 190/102/1 191/103/1 192/104/1
f 193/105/1 194/106/1 195/107/1 196/108/1
f 197/109/1 198/110/1 199/111/1 200/112/1
f 201/109/1 202/110/1 203/111/1 204/112/1
f 205/113/1 206/114/1 207/115/1 208/116/1

