# Tiled2Unity generated file. Do not modify by hand.
# Wavefront file for 'overfinal_mesh_0011.obj'

# Vertices (Count = 684)
v -1136 -48 0
v -1152 -48 0
v -1152 -32 0
v -1136 -32 0
v -944 -64 0
v -960 -64 0
v -960 -48 0
v -944 -48 0
v -928 -64 0
v -944 -64 0
v -944 -48 0
v -928 -48 0
v -912 -64 0
v -928 -64 0
v -928 -48 0
v -912 -48 0
v -960 -80 0
v -976 -80 0
v -976 -64 0
v -960 -64 0
v -944 -80 0
v -960 -80 0
v -960 -64 0
v -944 -64 0
v -928 -80 0
v -944 -80 0
v -944 -64 0
v -928 -64 0
v -912 -80 0
v -928 -80 0
v -928 -64 0
v -912 -64 0
v -896 -80 0
v -912 -80 0
v -912 -64 0
v -896 -64 0
v -960 -96 0
v -976 -96 0
v -976 -80 0
v -960 -80 0
v -944 -96 0
v -960 -96 0
v -960 -80 0
v -944 -80 0
v -928 -96 0
v -944 -96 0
v -944 -80 0
v -928 -80 0
v -912 -96 0
v -928 -96 0
v -928 -80 0
v -912 -80 0
v -896 -96 0
v -912 -96 0
v -912 -80 0
v -896 -80 0
v -1136 -112 0
v -1152 -112 0
v -1152 -96 0
v -1136 -96 0
v -1104 -112 0
v -1120 -112 0
v -1120 -96 0
v -1104 -96 0
v -960 -112 0
v -976 -112 0
v -976 -96 0
v -960 -96 0
v -896 -112 0
v -912 -112 0
v -912 -96 0
v -896 -96 0
v -1072 -128 0
v -1088 -128 0
v -1088 -112 0
v -1072 -112 0
v -960 -128 0
v -976 -128 0
v -976 -112 0
v -960 -112 0
v -896 -128 0
v -912 -128 0
v -912 -112 0
v -896 -112 0
v -1120 -144 0
v -1136 -144 0
v -1136 -128 0
v -1120 -128 0
v -1072 -144 0
v -1088 -144 0
v -1088 -128 0
v -1072 -128 0
v -960 -144 0
v -976 -144 0
v -976 -128 0
v -960 -128 0
v -928 -144 0
v -944 -144 0
v -944 -128 0
v -928 -128 0
v -896 -144 0
v -912 -144 0
v -912 -128 0
v -896 -128 0
v -1136 -160 0
v -1152 -160 0
v -1152 -144 0
v -1136 -144 0
v -1120 -160 0
v -1136 -160 0
v -1136 -144 0
v -1120 -144 0
v -1104 -160 0
v -1120 -160 0
v -1120 -144 0
v -1104 -144 0
v -960 -160 0
v -976 -160 0
v -976 -144 0
v -960 -144 0
v -928 -160 0
v -944 -160 0
v -944 -144 0
v -928 -144 0
v -896 -160 0
v -912 -160 0
v -912 -144 0
v -896 -144 0
v -1136 -176 0
v -1152 -176 0
v -1152 -160 0
v -1136 -160 0
v -1120 -176 0
v -1136 -176 0
v -1136 -160 0
v -1120 -160 0
v -1104 -176 0
v -1120 -176 0
v -1120 -160 0
v -1104 -160 0
v -1136 -192 0
v -1152 -192 0
v -1152 -176 0
v -1136 -176 0
v -1120 -192 0
v -1136 -192 0
v -1136 -176 0
v -1120 -176 0
v -1104 -192 0
v -1120 -192 0
v -1120 -176 0
v -1104 -176 0
v -1136 -208 0
v -1152 -208 0
v -1152 -192 0
v -1136 -192 0
v -1120 -208 0
v -1136 -208 0
v -1136 -192 0
v -1120 -192 0
v -1104 -208 0
v -1120 -208 0
v -1120 -192 0
v -1104 -192 0
v -1136 -224 0
v -1152 -224 0
v -1152 -208 0
v -1136 -208 0
v -1120 -224 0
v -1136 -224 0
v -1136 -208 0
v -1120 -208 0
v -1104 -224 0
v -1120 -224 0
v -1120 -208 0
v -1104 -208 0
v -1136 -240 0
v -1152 -240 0
v -1152 -224 0
v -1136 -224 0
v -1120 -240 0
v -1136 -240 0
v -1136 -224 0
v -1120 -224 0
v -1104 -240 0
v -1120 -240 0
v -1120 -224 0
v -1104 -224 0
v -1136 -256 0
v -1152 -256 0
v -1152 -240 0
v -1136 -240 0
v -1120 -256 0
v -1136 -256 0
v -1136 -240 0
v -1120 -240 0
v -1104 -256 0
v -1120 -256 0
v -1120 -240 0
v -1104 -240 0
v -1136 -272 0
v -1152 -272 0
v -1152 -256 0
v -1136 -256 0
v -1120 -272 0
v -1136 -272 0
v -1136 -256 0
v -1120 -256 0
v -1104 -272 0
v -1120 -272 0
v -1120 -256 0
v -1104 -256 0
v -1088 -272 0
v -1104 -272 0
v -1104 -256 0
v -1088 -256 0
v -1072 -272 0
v -1088 -272 0
v -1088 -256 0
v -1072 -256 0
v -1056 -272 0
v -1072 -272 0
v -1072 -256 0
v -1056 -256 0
v -1040 -272 0
v -1056 -272 0
v -1056 -256 0
v -1040 -256 0
v -1024 -272 0
v -1040 -272 0
v -1040 -256 0
v -1024 -256 0
v -1008 -272 0
v -1024 -272 0
v -1024 -256 0
v -1008 -256 0
v -992 -272 0
v -1008 -272 0
v -1008 -256 0
v -992 -256 0
v -976 -272 0
v -992 -272 0
v -992 -256 0
v -976 -256 0
v -960 -272 0
v -976 -272 0
v -976 -256 0
v -960 -256 0
v -944 -272 0
v -960 -272 0
v -960 -256 0
v -944 -256 0
v -928 -272 0
v -944 -272 0
v -944 -256 0
v -928 -256 0
v -912 -272 0
v -928 -272 0
v -928 -256 0
v -912 -256 0
v -896 -272 0
v -912 -272 0
v -912 -256 0
v -896 -256 0
v -880 -272 0
v -896 -272 0
v -896 -256 0
v -880 -256 0
v -864 -272 0
v -880 -272 0
v -880 -256 0
v -864 -256 0
v -848 -272 0
v -864 -272 0
v -864 -256 0
v -848 -256 0
v -832 -272 0
v -848 -272 0
v -848 -256 0
v -832 -256 0
v -816 -272 0
v -832 -272 0
v -832 -256 0
v -816 -256 0
v -800 -272 0
v -816 -272 0
v -816 -256 0
v -800 -256 0
v -784 -272 0
v -800 -272 0
v -800 -256 0
v -784 -256 0
v -768 -272 0
v -784 -272 0
v -784 -256 0
v -768 -256 0
v -752 -272 0
v -768 -272 0
v -768 -256 0
v -752 -256 0
v -736 -272 0
v -752 -272 0
v -752 -256 0
v -736 -256 0
v -720 -272 0
v -736 -272 0
v -736 -256 0
v -720 -256 0
v -704 -272 0
v -720 -272 0
v -720 -256 0
v -704 -256 0
v -80 -272 0
v -96 -272 0
v -96 -256 0
v -80 -256 0
v -64 -272 0
v -80 -272 0
v -80 -256 0
v -64 -256 0
v -48 -272 0
v -64 -272 0
v -64 -256 0
v -48 -256 0
v -1136 -288 0
v -1152 -288 0
v -1152 -272 0
v -1136 -272 0
v -1120 -288 0
v -1136 -288 0
v -1136 -272 0
v -1120 -272 0
v -1104 -288 0
v -1120 -288 0
v -1120 -272 0
v -1104 -272 0
v -1088 -288 0
v -1104 -288 0
v -1104 -272 0
v -1088 -272 0
v -1072 -288 0
v -1088 -288 0
v -1088 -272 0
v -1072 -272 0
v -1056 -288 0
v -1072 -288 0
v -1072 -272 0
v -1056 -272 0
v -1040 -288 0
v -1056 -288 0
v -1056 -272 0
v -1040 -272 0
v -1024 -288 0
v -1040 -288 0
v -1040 -272 0
v -1024 -272 0
v -1008 -288 0
v -1024 -288 0
v -1024 -272 0
v -1008 -272 0
v -992 -288 0
v -1008 -288 0
v -1008 -272 0
v -992 -272 0
v -976 -288 0
v -992 -288 0
v -992 -272 0
v -976 -272 0
v -960 -288 0
v -976 -288 0
v -976 -272 0
v -960 -272 0
v -944 -288 0
v -960 -288 0
v -960 -272 0
v -944 -272 0
v -928 -288 0
v -944 -288 0
v -944 -272 0
v -928 -272 0
v -912 -288 0
v -928 -288 0
v -928 -272 0
v -912 -272 0
v -896 -288 0
v -912 -288 0
v -912 -272 0
v -896 -272 0
v -880 -288 0
v -896 -288 0
v -896 -272 0
v -880 -272 0
v -864 -288 0
v -880 -288 0
v -880 -272 0
v -864 -272 0
v -848 -288 0
v -864 -288 0
v -864 -272 0
v -848 -272 0
v -832 -288 0
v -848 -288 0
v -848 -272 0
v -832 -272 0
v -816 -288 0
v -832 -288 0
v -832 -272 0
v -816 -272 0
v -800 -288 0
v -816 -288 0
v -816 -272 0
v -800 -272 0
v -784 -288 0
v -800 -288 0
v -800 -272 0
v -784 -272 0
v -768 -288 0
v -784 -288 0
v -784 -272 0
v -768 -272 0
v -752 -288 0
v -768 -288 0
v -768 -272 0
v -752 -272 0
v -736 -288 0
v -752 -288 0
v -752 -272 0
v -736 -272 0
v -720 -288 0
v -736 -288 0
v -736 -272 0
v -720 -272 0
v -704 -288 0
v -720 -288 0
v -720 -272 0
v -704 -272 0
v -96 -288 0
v -112 -288 0
v -112 -272 0
v -96 -272 0
v -80 -288 0
v -96 -288 0
v -96 -272 0
v -80 -272 0
v -48 -288 0
v -64 -288 0
v -64 -272 0
v -48 -272 0
v -32 -288 0
v -48 -288 0
v -48 -272 0
v -32 -272 0
v -1136 -304 0
v -1152 -304 0
v -1152 -288 0
v -1136 -288 0
v -1120 -304 0
v -1136 -304 0
v -1136 -288 0
v -1120 -288 0
v -1104 -304 0
v -1120 -304 0
v -1120 -288 0
v -1104 -288 0
v -1088 -304 0
v -1104 -304 0
v -1104 -288 0
v -1088 -288 0
v -1072 -304 0
v -1088 -304 0
v -1088 -288 0
v -1072 -288 0
v -1056 -304 0
v -1072 -304 0
v -1072 -288 0
v -1056 -288 0
v -1040 -304 0
v -1056 -304 0
v -1056 -288 0
v -1040 -288 0
v -1024 -304 0
v -1040 -304 0
v -1040 -288 0
v -1024 -288 0
v -1008 -304 0
v -1024 -304 0
v -1024 -288 0
v -1008 -288 0
v -992 -304 0
v -1008 -304 0
v -1008 -288 0
v -992 -288 0
v -976 -304 0
v -992 -304 0
v -992 -288 0
v -976 -288 0
v -960 -304 0
v -976 -304 0
v -976 -288 0
v -960 -288 0
v -944 -304 0
v -960 -304 0
v -960 -288 0
v -944 -288 0
v -928 -304 0
v -944 -304 0
v -944 -288 0
v -928 -288 0
v -912 -304 0
v -928 -304 0
v -928 -288 0
v -912 -288 0
v -896 -304 0
v -912 -304 0
v -912 -288 0
v -896 -288 0
v -880 -304 0
v -896 -304 0
v -896 -288 0
v -880 -288 0
v -864 -304 0
v -880 -304 0
v -880 -288 0
v -864 -288 0
v -848 -304 0
v -864 -304 0
v -864 -288 0
v -848 -288 0
v -832 -304 0
v -848 -304 0
v -848 -288 0
v -832 -288 0
v -816 -304 0
v -832 -304 0
v -832 -288 0
v -816 -288 0
v -800 -304 0
v -816 -304 0
v -816 -288 0
v -800 -288 0
v -784 -304 0
v -800 -304 0
v -800 -288 0
v -784 -288 0
v -768 -304 0
v -784 -304 0
v -784 -288 0
v -768 -288 0
v -752 -304 0
v -768 -304 0
v -768 -288 0
v -752 -288 0
v -736 -304 0
v -752 -304 0
v -752 -288 0
v -736 -288 0
v -720 -304 0
v -736 -304 0
v -736 -288 0
v -720 -288 0
v -704 -304 0
v -720 -304 0
v -720 -288 0
v -704 -288 0
v -128 -304 0
v -144 -304 0
v -144 -288 0
v -128 -288 0
v -96 -304 0
v -112 -304 0
v -112 -288 0
v -96 -288 0
v -32 -304 0
v -48 -304 0
v -48 -288 0
v -32 -288 0
v -128 -320 0
v -144 -320 0
v -144 -304 0
v -128 -304 0
v -96 -320 0
v -112 -320 0
v -112 -304 0
v -96 -304 0
v -80 -320 0
v -96 -320 0
v -96 -304 0
v -80 -304 0
v -64 -320 0
v -80 -320 0
v -80 -304 0
v -64 -304 0
v -48 -320 0
v -64 -320 0
v -64 -304 0
v -48 -304 0
v -32 -320 0
v -48 -320 0
v -48 -304 0
v -32 -304 0
v -96 -336 0
v -112 -336 0
v -112 -320 0
v -96 -320 0
v -80 -336 0
v -96 -336 0
v -96 -320 0
v -80 -320 0
v -64 -336 0
v -80 -336 0
v -80 -320 0
v -64 -320 0
v -48 -336 0
v -64 -336 0
v -64 -320 0
v -48 -320 0
v -32 -336 0
v -48 -336 0
v -48 -320 0
v -32 -320 0
v -208 -352 0
v -224 -352 0
v -224 -336 0
v -208 -336 0
v -192 -352 0
v -208 -352 0
v -208 -336 0
v -192 -336 0
v -176 -352 0
v -192 -352 0
v -192 -336 0
v -176 -336 0
v -96 -352 0
v -112 -352 0
v -112 -336 0
v -96 -336 0
v -80 -352 0
v -96 -352 0
v -96 -336 0
v -80 -336 0
v -64 -352 0
v -80 -352 0
v -80 -336 0
v -64 -336 0
v -48 -352 0
v -64 -352 0
v -64 -336 0
v -48 -336 0
v -32 -352 0
v -48 -352 0
v -48 -336 0
v -32 -336 0
v -208 -368 0
v -224 -368 0
v -224 -352 0
v -208 -352 0
v -192 -368 0
v -208 -368 0
v -208 -352 0
v -192 -352 0
v -176 -368 0
v -192 -368 0
v -192 -352 0
v -176 -352 0
v -208 -384 0
v -224 -384 0
v -224 -368 0
v -208 -368 0
v -192 -384 0
v -208 -384 0
v -208 -368 0
v -192 -368 0
v -176 -384 0
v -192 -384 0
v -192 -368 0
v -176 -368 0
v -320 -1040 0
v -336 -1040 0
v -336 -1024 0
v -320 -1024 0
v -320 -1056 0
v -336 -1056 0
v -336 -1040 0
v -320 -1040 0

# Texture cooridinates (Count = 176)
vt 0.3863636 0.3231939
vt 0.4028926 0.3231939
vt 0.4028926 0.3536122
vt 0.3863636 0.3536122
vt 0.2458678 0.2908745
vt 0.2623967 0.2908745
vt 0.2623967 0.3212928
vt 0.2458678 0.3212928
vt 0.3161157 0.2908745
vt 0.3326446 0.2908745
vt 0.3326446 0.3212928
vt 0.3161157 0.3212928
vt 0.2283058 0.2908745
vt 0.2448347 0.2908745
vt 0.2448347 0.3212928
vt 0.2283058 0.3212928
vt 0.2458678 0.2262357
vt 0.2623967 0.2262357
vt 0.2623967 0.256654
vt 0.2458678 0.256654
vt 0.2985537 0.3555133
vt 0.3150826 0.3555133
vt 0.3150826 0.3859316
vt 0.2985537 0.3859316
vt 0.2283058 0.2262357
vt 0.2448347 0.2262357
vt 0.2448347 0.256654
vt 0.2283058 0.256654
vt 0.3161157 0.3231939
vt 0.3326446 0.3231939
vt 0.3326446 0.3536122
vt 0.3161157 0.3536122
vt 0.3161157 0.2585551
vt 0.3326446 0.2585551
vt 0.3326446 0.2889734
vt 0.3161157 0.2889734
vt 0.2809917 0.3231939
vt 0.2975207 0.3231939
vt 0.2975207 0.3536122
vt 0.2809917 0.3536122
vt 0.7551653 0.8079848
vt 0.7716942 0.8079848
vt 0.7716942 0.838403
vt 0.7551653 0.838403
vt 0.2283058 0.3231939
vt 0.2448347 0.3231939
vt 0.2448347 0.3536122
vt 0.2283058 0.3536122
vt 0.4039256 0.6463878
vt 0.4204545 0.6463878
vt 0.4204545 0.6768061
vt 0.4039256 0.6768061
vt 0.2458678 0.3555133
vt 0.2623967 0.3555133
vt 0.2623967 0.3859316
vt 0.2458678 0.3859316
vt 0.7200413 0.743346
vt 0.7365702 0.743346
vt 0.7365702 0.7737643
vt 0.7200413 0.7737643
vt 0.4039256 0.6140684
vt 0.4204545 0.6140684
vt 0.4204545 0.6444867
vt 0.4039256 0.6444867
vt 0.1580579 0.4524715
vt 0.1745868 0.4524715
vt 0.1745868 0.4828897
vt 0.1580579 0.4828897
vt 0.1404959 0.4524715
vt 0.1570248 0.4524715
vt 0.1570248 0.4828897
vt 0.1404959 0.4828897
vt 0.1229339 0.4524715
vt 0.1394628 0.4524715
vt 0.1394628 0.4828897
vt 0.1229339 0.4828897
vt 0.2458678 0.3231939
vt 0.2623967 0.3231939
vt 0.2623967 0.3536122
vt 0.2458678 0.3536122
vt 0.1404959 0.4847909
vt 0.1570248 0.4847909
vt 0.1570248 0.5152091
vt 0.1404959 0.5152091
vt 0.3688017 0.2908745
vt 0.3853306 0.2908745
vt 0.3853306 0.3212928
vt 0.3688017 0.3212928
vt 0.4390496 0.2585551
vt 0.4555785 0.2585551
vt 0.4555785 0.2889734
vt 0.4390496 0.2889734
vt 0.3512397 0.2908745
vt 0.3677686 0.2908745
vt 0.3677686 0.3212928
vt 0.3512397 0.3212928
vt 0.3688017 0.2262357
vt 0.3853306 0.2262357
vt 0.3853306 0.256654
vt 0.3688017 0.256654
vt 0.3512397 0.2262357
vt 0.3677686 0.2262357
vt 0.3677686 0.256654
vt 0.3512397 0.256654
vt 0.1580579 0.4201521
vt 0.1745868 0.4201521
vt 0.1745868 0.4505703
vt 0.1580579 0.4505703
vt 0.1404959 0.4201521
vt 0.1570248 0.4201521
vt 0.1570248 0.4505703
vt 0.1404959 0.4505703
vt 0.2634298 0.6463878
vt 0.2799587 0.6463878
vt 0.2799587 0.6768061
vt 0.2634298 0.6768061
vt 0.2634298 0.6140684
vt 0.2799587 0.6140684
vt 0.2799587 0.6444867
vt 0.2634298 0.6444867
vt 0.2458678 0.1292776
vt 0.2623967 0.1292776
vt 0.2623967 0.1596958
vt 0.2458678 0.1596958
vt 0.2283058 0.1292776
vt 0.2448347 0.1292776
vt 0.2448347 0.1596958
vt 0.2283058 0.1596958
vt 0.2107438 0.1292776
vt 0.2272727 0.1292776
vt 0.2272727 0.1596958
vt 0.2107438 0.1596958
vt 0.07024793 0.9695817
vt 0.08677686 0.9695817
vt 0.08677686 1
vt 0.07024793 1
vt 0.05268595 0.9695817
vt 0.06921487 0.9695817
vt 0.06921487 1
vt 0.05268595 1
vt 0.03512397 0.9695817
vt 0.05165289 0.9695817
vt 0.05165289 1
vt 0.03512397 1
vt 0.07024793 0.9372624
vt 0.08677686 0.9372624
vt 0.08677686 0.9676806
vt 0.07024793 0.9676806
vt 0.05268595 0.9372624
vt 0.06921487 0.9372624
vt 0.06921487 0.9676806
vt 0.05268595 0.9676806
vt 0.03512397 0.9372624
vt 0.05165289 0.9372624
vt 0.05165289 0.9676806
vt 0.03512397 0.9676806
vt 0.07024793 0.904943
vt 0.08677686 0.904943
vt 0.08677686 0.9353612
vt 0.07024793 0.9353612
vt 0.05268595 0.904943
vt 0.06921487 0.904943
vt 0.06921487 0.9353612
vt 0.05268595 0.9353612
vt 0.03512397 0.904943
vt 0.05165289 0.904943
vt 0.05165289 0.9353612
vt 0.03512397 0.9353612
vt 0.3161157 0.6463878
vt 0.3326446 0.6463878
vt 0.3326446 0.6768061
vt 0.3161157 0.6768061
vt 0.3161157 0.6140684
vt 0.3326446 0.6140684
vt 0.3326446 0.6444867
vt 0.3161157 0.6444867

# Normal
vn 0 0 -1

# Mesh description
g overfinal_mesh_0011

# Faces
f 1/1/1 2/2/1 3/3/1 4/4/1
f 5/5/1 6/6/1 7/7/1 8/8/1
f 9/9/1 10/10/1 11/11/1 12/12/1
f 13/13/1 14/14/1 15/15/1 16/16/1
f 17/5/1 18/6/1 19/7/1 20/8/1
f 21/17/1 22/18/1 23/19/1 24/20/1
f 25/21/1 26/22/1 27/23/1 28/24/1
f 29/25/1 30/26/1 31/27/1 32/28/1
f 33/13/1 34/14/1 35/15/1 36/16/1
f 37/17/1 38/18/1 39/19/1 40/20/1
f 41/29/1 42/30/1 43/31/1 44/32/1
f 45/33/1 46/34/1 47/35/1 48/36/1
f 49/37/1 50/38/1 51/39/1 52/40/1
f 53/25/1 54/26/1 55/27/1 56/28/1
f 57/41/1 58/42/1 59/43/1 60/44/1
f 61/41/1 62/42/1 63/43/1 64/44/1
f 65/45/1 66/46/1 67/47/1 68/48/1
f 69/45/1 70/46/1 71/47/1 72/48/1
f 73/49/1 74/50/1 75/51/1 76/52/1
f 77/53/1 78/54/1 79/55/1 80/56/1
f 81/53/1 82/54/1 83/55/1 84/56/1
f 85/57/1 86/58/1 87/59/1 88/60/1
f 89/61/1 90/62/1 91/63/1 92/64/1
f 93/53/1 94/54/1 95/55/1 96/56/1
f 97/45/1 98/46/1 99/47/1 100/48/1
f 101/53/1 102/54/1 103/55/1 104/56/1
f 105/65/1 106/66/1 107/67/1 108/68/1
f 109/69/1 110/70/1 111/71/1 112/72/1
f 113/73/1 114/74/1 115/75/1 116/76/1
f 117/77/1 118/78/1 119/79/1 120/80/1
f 121/77/1 122/78/1 123/79/1 124/80/1
f 125/77/1 126/78/1 127/79/1 128/80/1
f 129/65/1 130/66/1 131/67/1 132/68/1
f 133/69/1 134/70/1 135/71/1 136/72/1
f 137/73/1 138/74/1 139/75/1 140/76/1
f 141/65/1 142/66/1 143/67/1 144/68/1
f 145/69/1 146/70/1 147/71/1 148/72/1
f 149/73/1 150/74/1 151/75/1 152/76/1
f 153/65/1 154/66/1 155/67/1 156/68/1
f 157/69/1 158/70/1 159/71/1 160/72/1
f 161/73/1 162/74/1 163/75/1 164/76/1
f 165/65/1 166/66/1 167/67/1 168/68/1
f 169/69/1 170/70/1 171/71/1 172/72/1
f 173/73/1 174/74/1 175/75/1 176/76/1
f 177/65/1 178/66/1 179/67/1 180/68/1
f 181/69/1 182/70/1 183/71/1 184/72/1
f 185/73/1 186/74/1 187/75/1 188/76/1
f 189/65/1 190/66/1 191/67/1 192/68/1
f 193/69/1 194/70/1 195/71/1 196/72/1
f 197/73/1 198/74/1 199/75/1 200/76/1
f 201/65/1 202/66/1 203/67/1 204/68/1
f 205/69/1 206/70/1 207/71/1 208/72/1
f 209/69/1 210/70/1 211/71/1 212/72/1
f 213/81/1 214/82/1 215/83/1 216/84/1
f 217/81/1 218/82/1 219/83/1 220/84/1
f 221/81/1 222/82/1 223/83/1 224/84/1
f 225/81/1 226/82/1 227/83/1 228/84/1
f 229/81/1 230/82/1 231/83/1 232/84/1
f 233/81/1 234/82/1 235/83/1 236/84/1
f 237/81/1 238/82/1 239/83/1 240/84/1
f 241/81/1 242/82/1 243/83/1 244/84/1
f 245/81/1 246/82/1 247/83/1 248/84/1
f 249/81/1 250/82/1 251/83/1 252/84/1
f 253/81/1 254/82/1 255/83/1 256/84/1
f 257/81/1 258/82/1 259/83/1 260/84/1
f 261/81/1 262/82/1 263/83/1 264/84/1
f 265/81/1 266/82/1 267/83/1 268/84/1
f 269/81/1 270/82/1 271/83/1 272/84/1
f 273/81/1 274/82/1 275/83/1 276/84/1
f 277/81/1 278/82/1 279/83/1 280/84/1
f 281/81/1 282/82/1 283/83/1 284/84/1
f 285/81/1 286/82/1 287/83/1 288/84/1
f 289/81/1 290/82/1 291/83/1 292/84/1
f 293/81/1 294/82/1 295/83/1 296/84/1
f 297/81/1 298/82/1 299/83/1 300/84/1
f 301/81/1 302/82/1 303/83/1 304/84/1
f 305/81/1 306/82/1 307/83/1 308/84/1
f 309/69/1 310/70/1 311/71/1 312/72/1
f 313/85/1 314/86/1 315/87/1 316/88/1
f 317/89/1 318/90/1 319/91/1 320/92/1
f 321/93/1 322/94/1 323/95/1 324/96/1
f 325/65/1 326/66/1 327/67/1 328/68/1
f 329/69/1 330/70/1 331/71/1 332/72/1
f 333/69/1 334/70/1 335/71/1 336/72/1
f 337/69/1 338/70/1 339/71/1 340/72/1
f 341/69/1 342/70/1 343/71/1 344/72/1
f 345/69/1 346/70/1 347/71/1 348/72/1
f 349/69/1 350/70/1 351/71/1 352/72/1
f 353/69/1 354/70/1 355/71/1 356/72/1
f 357/69/1 358/70/1 359/71/1 360/72/1
f 361/69/1 362/70/1 363/71/1 364/72/1
f 365/69/1 366/70/1 367/71/1 368/72/1
f 369/69/1 370/70/1 371/71/1 372/72/1
f 373/69/1 374/70/1 375/71/1 376/72/1
f 377/69/1 378/70/1 379/71/1 380/72/1
f 381/69/1 382/70/1 383/71/1 384/72/1
f 385/69/1 386/70/1 387/71/1 388/72/1
f 389/69/1 390/70/1 391/71/1 392/72/1
f 393/69/1 394/70/1 395/71/1 396/72/1
f 397/69/1 398/70/1 399/71/1 400/72/1
f 401/69/1 402/70/1 403/71/1 404/72/1
f 405/69/1 406/70/1 407/71/1 408/72/1
f 409/69/1 410/70/1 411/71/1 412/72/1
f 413/69/1 414/70/1 415/71/1 416/72/1
f 417/69/1 418/70/1 419/71/1 420/72/1
f 421/69/1 422/70/1 423/71/1 424/72/1
f 425/69/1 426/70/1 427/71/1 428/72/1
f 429/69/1 430/70/1 431/71/1 432/72/1
f 433/69/1 434/70/1 435/71/1 436/72/1
f 437/85/1 438/86/1 439/87/1 440/88/1
f 441/97/1 442/98/1 443/99/1 444/100/1
f 445/101/1 446/102/1 447/103/1 448/104/1
f 449/93/1 450/94/1 451/95/1 452/96/1
f 453/105/1 454/106/1 455/107/1 456/108/1
f 457/109/1 458/110/1 459/111/1 460/112/1
f 461/109/1 462/110/1 463/111/1 464/112/1
f 465/109/1 466/110/1 467/111/1 468/112/1
f 469/109/1 470/110/1 471/111/1 472/112/1
f 473/109/1 474/110/1 475/111/1 476/112/1
f 477/109/1 478/110/1 479/111/1 480/112/1
f 481/109/1 482/110/1 483/111/1 484/112/1
f 485/109/1 486/110/1 487/111/1 488/112/1
f 489/109/1 490/110/1 491/111/1 492/112/1
f 493/109/1 494/110/1 495/111/1 496/112/1
f 497/109/1 498/110/1 499/111/1 500/112/1
f 501/109/1 502/110/1 503/111/1 504/112/1
f 505/109/1 506/110/1 507/111/1 508/112/1
f 509/109/1 510/110/1 511/111/1 512/112/1
f 513/109/1 514/110/1 515/111/1 516/112/1
f 517/109/1 518/110/1 519/111/1 520/112/1
f 521/109/1 522/110/1 523/111/1 524/112/1
f 525/109/1 526/110/1 527/111/1 528/112/1
f 529/109/1 530/110/1 531/111/1 532/112/1
f 533/109/1 534/110/1 535/111/1 536/112/1
f 537/109/1 538/110/1 539/111/1 540/112/1
f 541/109/1 542/110/1 543/111/1 544/112/1
f 545/109/1 546/110/1 547/111/1 548/112/1
f 549/109/1 550/110/1 551/111/1 552/112/1
f 553/109/1 554/110/1 555/111/1 556/112/1
f 557/109/1 558/110/1 559/111/1 560/112/1
f 561/69/1 562/70/1 563/71/1 564/72/1
f 565/113/1 566/114/1 567/115/1 568/116/1
f 569/97/1 570/98/1 571/99/1 572/100/1
f 573/101/1 574/102/1 575/103/1 576/104/1
f 577/117/1 578/118/1 579/119/1 580/120/1
f 581/121/1 582/122/1 583/123/1 584/124/1
f 585/125/1 586/126/1 587/127/1 588/128/1
f 589/125/1 590/126/1 591/127/1 592/128/1
f 593/125/1 594/126/1 595/127/1 596/128/1
f 597/129/1 598/130/1 599/131/1 600/132/1
f 601/121/1 602/122/1 603/123/1 604/124/1
f 605/125/1 606/126/1 607/127/1 608/128/1
f 609/125/1 610/126/1 611/127/1 612/128/1
f 613/125/1 614/126/1 615/127/1 616/128/1
f 617/129/1 618/130/1 619/131/1 620/132/1
f 621/133/1 622/134/1 623/135/1 624/136/1
f 625/137/1 626/138/1 627/139/1 628/140/1
f 629/141/1 630/142/1 631/143/1 632/144/1
f 633/121/1 634/122/1 635/123/1 636/124/1
f 637/125/1 638/126/1 639/127/1 640/128/1
f 641/125/1 642/126/1 643/127/1 644/128/1
f 645/125/1 646/126/1 647/127/1 648/128/1
f 649/129/1 650/130/1 651/131/1 652/132/1
f 653/145/1 654/146/1 655/147/1 656/148/1
f 657/149/1 658/150/1 659/151/1 660/152/1
f 661/153/1 662/154/1 663/155/1 664/156/1
f 665/157/1 666/158/1 667/159/1 668/160/1
f 669/161/1 670/162/1 671/163/1 672/164/1
f 673/165/1 674/166/1 675/167/1 676/168/1
f 677/169/1 678/170/1 679/171/1 680/172/1
f 681/173/1 682/174/1 683/175/1 684/176/1

