# Tiled2Unity generated file. Do not modify by hand.
# Wavefront file for 'Overworld_mesh_0021.obj'

# Vertices (Count = 660)
v -640 -64 0
v -656 -64 0
v -656 -48 0
v -640 -48 0
v -640 -80 0
v -656 -80 0
v -656 -64 0
v -640 -64 0
v -528 -96 0
v -544 -96 0
v -544 -80 0
v -528 -80 0
v -528 -112 0
v -544 -112 0
v -544 -96 0
v -528 -96 0
v -256 -128 0
v -272 -128 0
v -272 -112 0
v -256 -112 0
v -256 -144 0
v -272 -144 0
v -272 -128 0
v -256 -128 0
v -768 -192 0
v -784 -192 0
v -784 -176 0
v -768 -176 0
v -768 -208 0
v -784 -208 0
v -784 -192 0
v -768 -192 0
v -1056 -368 0
v -1072 -368 0
v -1072 -352 0
v -1056 -352 0
v -896 -368 0
v -912 -368 0
v -912 -352 0
v -896 -352 0
v -1056 -384 0
v -1072 -384 0
v -1072 -368 0
v -1056 -368 0
v -896 -384 0
v -912 -384 0
v -912 -368 0
v -896 -368 0
v -896 -432 0
v -912 -432 0
v -912 -416 0
v -896 -416 0
v -832 -432 0
v -848 -432 0
v -848 -416 0
v -832 -416 0
v -816 -432 0
v -832 -432 0
v -832 -416 0
v -816 -416 0
v -800 -432 0
v -816 -432 0
v -816 -416 0
v -800 -416 0
v -752 -432 0
v -768 -432 0
v -768 -416 0
v -752 -416 0
v -736 -432 0
v -752 -432 0
v -752 -416 0
v -736 -416 0
v -720 -432 0
v -736 -432 0
v -736 -416 0
v -720 -416 0
v -336 -432 0
v -352 -432 0
v -352 -416 0
v -336 -416 0
v -1120 -448 0
v -1136 -448 0
v -1136 -432 0
v -1120 -432 0
v -1104 -448 0
v -1120 -448 0
v -1120 -432 0
v -1104 -432 0
v -880 -448 0
v -896 -448 0
v -896 -432 0
v -880 -432 0
v -832 -448 0
v -848 -448 0
v -848 -432 0
v -832 -432 0
v -816 -448 0
v -832 -448 0
v -832 -432 0
v -816 -432 0
v -800 -448 0
v -816 -448 0
v -816 -432 0
v -800 -432 0
v -752 -448 0
v -768 -448 0
v -768 -432 0
v -752 -432 0
v -736 -448 0
v -752 -448 0
v -752 -432 0
v -736 -432 0
v -720 -448 0
v -736 -448 0
v -736 -432 0
v -720 -432 0
v -336 -448 0
v -352 -448 0
v -352 -432 0
v -336 -432 0
v -1120 -464 0
v -1136 -464 0
v -1136 -448 0
v -1120 -448 0
v -1104 -464 0
v -1120 -464 0
v -1120 -448 0
v -1104 -448 0
v -1008 -464 0
v -1024 -464 0
v -1024 -448 0
v -1008 -448 0
v -1120 -480 0
v -1136 -480 0
v -1136 -464 0
v -1120 -464 0
v -1104 -480 0
v -1120 -480 0
v -1120 -464 0
v -1104 -464 0
v -1120 -496 0
v -1136 -496 0
v -1136 -480 0
v -1120 -480 0
v -1104 -496 0
v -1120 -496 0
v -1120 -480 0
v -1104 -480 0
v -592 -496 0
v -608 -496 0
v -608 -480 0
v -592 -480 0
v -592 -512 0
v -608 -512 0
v -608 -496 0
v -592 -496 0
v -1152 -592 0
v -1168 -592 0
v -1168 -576 0
v -1152 -576 0
v -1072 -592 0
v -1088 -592 0
v -1088 -576 0
v -1072 -576 0
v -1152 -608 0
v -1168 -608 0
v -1168 -592 0
v -1152 -592 0
v -1072 -608 0
v -1088 -608 0
v -1088 -592 0
v -1072 -592 0
v -688 -624 0
v -704 -624 0
v -704 -608 0
v -688 -608 0
v -688 -640 0
v -704 -640 0
v -704 -624 0
v -688 -624 0
v -480 -672 0
v -496 -672 0
v -496 -656 0
v -480 -656 0
v -464 -672 0
v -480 -672 0
v -480 -656 0
v -464 -656 0
v -448 -672 0
v -464 -672 0
v -464 -656 0
v -448 -656 0
v -480 -688 0
v -496 -688 0
v -496 -672 0
v -480 -672 0
v -464 -688 0
v -480 -688 0
v -480 -672 0
v -464 -672 0
v -448 -688 0
v -464 -688 0
v -464 -672 0
v -448 -672 0
v -272 -688 0
v -288 -688 0
v -288 -672 0
v -272 -672 0
v -496 -704 0
v -512 -704 0
v -512 -688 0
v -496 -688 0
v -480 -704 0
v -496 -704 0
v -496 -688 0
v -480 -688 0
v -464 -704 0
v -480 -704 0
v -480 -688 0
v -464 -688 0
v -448 -704 0
v -464 -704 0
v -464 -688 0
v -448 -688 0
v -272 -704 0
v -288 -704 0
v -288 -688 0
v -272 -688 0
v -496 -720 0
v -512 -720 0
v -512 -704 0
v -496 -704 0
v -480 -720 0
v -496 -720 0
v -496 -704 0
v -480 -704 0
v -464 -720 0
v -480 -720 0
v -480 -704 0
v -464 -704 0
v -448 -720 0
v -464 -720 0
v -464 -704 0
v -448 -704 0
v -480 -736 0
v -496 -736 0
v -496 -720 0
v -480 -720 0
v -464 -736 0
v -480 -736 0
v -480 -720 0
v -464 -720 0
v -448 -736 0
v -464 -736 0
v -464 -720 0
v -448 -720 0
v -480 -752 0
v -496 -752 0
v -496 -736 0
v -480 -736 0
v -464 -752 0
v -480 -752 0
v -480 -736 0
v -464 -736 0
v -448 -752 0
v -464 -752 0
v -464 -736 0
v -448 -736 0
v -832 -768 0
v -848 -768 0
v -848 -752 0
v -832 -752 0
v -720 -768 0
v -736 -768 0
v -736 -752 0
v -720 -752 0
v -704 -768 0
v -720 -768 0
v -720 -752 0
v -704 -752 0
v -688 -768 0
v -704 -768 0
v -704 -752 0
v -688 -752 0
v -464 -768 0
v -480 -768 0
v -480 -752 0
v -464 -752 0
v -448 -768 0
v -464 -768 0
v -464 -752 0
v -448 -752 0
v -832 -784 0
v -848 -784 0
v -848 -768 0
v -832 -768 0
v -720 -784 0
v -736 -784 0
v -736 -768 0
v -720 -768 0
v -704 -784 0
v -720 -784 0
v -720 -768 0
v -704 -768 0
v -688 -784 0
v -704 -784 0
v -704 -768 0
v -688 -768 0
v -512 -784 0
v -528 -784 0
v -528 -768 0
v -512 -768 0
v -448 -784 0
v -464 -784 0
v -464 -768 0
v -448 -768 0
v -96 -784 0
v -112 -784 0
v -112 -768 0
v -96 -768 0
v -720 -800 0
v -736 -800 0
v -736 -784 0
v -720 -784 0
v -704 -800 0
v -720 -800 0
v -720 -784 0
v -704 -784 0
v -688 -800 0
v -704 -800 0
v -704 -784 0
v -688 -784 0
v -512 -800 0
v -528 -800 0
v -528 -784 0
v -512 -784 0
v -448 -800 0
v -464 -800 0
v -464 -784 0
v -448 -784 0
v -96 -800 0
v -112 -800 0
v -112 -784 0
v -96 -784 0
v -720 -816 0
v -736 -816 0
v -736 -800 0
v -720 -800 0
v -704 -816 0
v -720 -816 0
v -720 -800 0
v -704 -800 0
v -688 -816 0
v -704 -816 0
v -704 -800 0
v -688 -800 0
v -448 -816 0
v -464 -816 0
v -464 -800 0
v -448 -800 0
v -336 -816 0
v -352 -816 0
v -352 -800 0
v -336 -800 0
v -320 -816 0
v -336 -816 0
v -336 -800 0
v -320 -800 0
v -304 -816 0
v -320 -816 0
v -320 -800 0
v -304 -800 0
v -720 -832 0
v -736 -832 0
v -736 -816 0
v -720 -816 0
v -704 -832 0
v -720 -832 0
v -720 -816 0
v -704 -816 0
v -688 -832 0
v -704 -832 0
v -704 -816 0
v -688 -816 0
v -448 -832 0
v -464 -832 0
v -464 -816 0
v -448 -816 0
v -256 -832 0
v -272 -832 0
v -272 -816 0
v -256 -816 0
v -720 -848 0
v -736 -848 0
v -736 -832 0
v -720 -832 0
v -704 -848 0
v -720 -848 0
v -720 -832 0
v -704 -832 0
v -688 -848 0
v -704 -848 0
v -704 -832 0
v -688 -832 0
v -368 -848 0
v -384 -848 0
v -384 -832 0
v -368 -832 0
v -352 -848 0
v -368 -848 0
v -368 -832 0
v -352 -832 0
v -336 -848 0
v -352 -848 0
v -352 -832 0
v -336 -832 0
v -320 -848 0
v -336 -848 0
v -336 -832 0
v -320 -832 0
v -256 -848 0
v -272 -848 0
v -272 -832 0
v -256 -832 0
v -832 -864 0
v -848 -864 0
v -848 -848 0
v -832 -848 0
v -688 -864 0
v -704 -864 0
v -704 -848 0
v -688 -848 0
v -640 -864 0
v -656 -864 0
v -656 -848 0
v -640 -848 0
v -608 -864 0
v -624 -864 0
v -624 -848 0
v -608 -848 0
v -592 -864 0
v -608 -864 0
v -608 -848 0
v -592 -848 0
v -784 -880 0
v -800 -880 0
v -800 -864 0
v -784 -864 0
v -768 -880 0
v -784 -880 0
v -784 -864 0
v -768 -864 0
v -624 -880 0
v -640 -880 0
v -640 -864 0
v -624 -864 0
v -608 -880 0
v -624 -880 0
v -624 -864 0
v -608 -864 0
v -592 -880 0
v -608 -880 0
v -608 -864 0
v -592 -864 0
v -576 -880 0
v -592 -880 0
v -592 -864 0
v -576 -864 0
v -800 -896 0
v -816 -896 0
v -816 -880 0
v -800 -880 0
v -784 -896 0
v -800 -896 0
v -800 -880 0
v -784 -880 0
v -768 -896 0
v -784 -896 0
v -784 -880 0
v -768 -880 0
v -752 -896 0
v -768 -896 0
v -768 -880 0
v -752 -880 0
v -576 -896 0
v -592 -896 0
v -592 -880 0
v -576 -880 0
v -672 -912 0
v -688 -912 0
v -688 -896 0
v -672 -896 0
v -656 -912 0
v -672 -912 0
v -672 -896 0
v -656 -896 0
v -576 -912 0
v -592 -912 0
v -592 -896 0
v -576 -896 0
v -768 -928 0
v -784 -928 0
v -784 -912 0
v -768 -912 0
v -672 -928 0
v -688 -928 0
v -688 -912 0
v -672 -912 0
v -656 -928 0
v -672 -928 0
v -672 -912 0
v -656 -912 0
v -832 -944 0
v -848 -944 0
v -848 -928 0
v -832 -928 0
v -800 -944 0
v -816 -944 0
v -816 -928 0
v -800 -928 0
v -768 -944 0
v -784 -944 0
v -784 -928 0
v -768 -928 0
v -656 -944 0
v -672 -944 0
v -672 -928 0
v -656 -928 0
v -624 -944 0
v -640 -944 0
v -640 -928 0
v -624 -928 0
v -608 -944 0
v -624 -944 0
v -624 -928 0
v -608 -928 0
v -592 -944 0
v -608 -944 0
v -608 -928 0
v -592 -928 0
v -944 -960 0
v -960 -960 0
v -960 -944 0
v -944 -944 0
v -832 -960 0
v -848 -960 0
v -848 -944 0
v -832 -944 0
v -944 -976 0
v -960 -976 0
v -960 -960 0
v -944 -960 0
v -768 -976 0
v -784 -976 0
v -784 -960 0
v -768 -960 0
v -752 -976 0
v -768 -976 0
v -768 -960 0
v -752 -960 0
v -704 -976 0
v -720 -976 0
v -720 -960 0
v -704 -960 0
v -768 -992 0
v -784 -992 0
v -784 -976 0
v -768 -976 0
v -752 -992 0
v -768 -992 0
v -768 -976 0
v -752 -976 0
v -640 -992 0
v -656 -992 0
v -656 -976 0
v -640 -976 0
v -624 -992 0
v -640 -992 0
v -640 -976 0
v -624 -976 0
v -816 -1008 0
v -832 -1008 0
v -832 -992 0
v -816 -992 0
v -784 -1008 0
v -800 -1008 0
v -800 -992 0
v -784 -992 0
v -752 -1008 0
v -768 -1008 0
v -768 -992 0
v -752 -992 0
v -656 -1008 0
v -672 -1008 0
v -672 -992 0
v -656 -992 0
v -640 -1008 0
v -656 -1008 0
v -656 -992 0
v -640 -992 0
v -624 -1008 0
v -640 -1008 0
v -640 -992 0
v -624 -992 0
v -576 -1008 0
v -592 -1008 0
v -592 -992 0
v -576 -992 0
v -576 -1024 0
v -592 -1024 0
v -592 -1008 0
v -576 -1008 0
v -768 -1040 0
v -784 -1040 0
v -784 -1024 0
v -768 -1024 0
v -704 -1040 0
v -720 -1040 0
v -720 -1024 0
v -704 -1024 0
v -832 -1056 0
v -848 -1056 0
v -848 -1040 0
v -832 -1040 0
v -704 -1056 0
v -720 -1056 0
v -720 -1040 0
v -704 -1040 0
v -656 -1056 0
v -672 -1056 0
v -672 -1040 0
v -656 -1040 0
v -624 -1056 0
v -640 -1056 0
v -640 -1040 0
v -624 -1040 0
v -576 -1056 0
v -592 -1056 0
v -592 -1040 0
v -576 -1040 0
v -528 -1056 0
v -544 -1056 0
v -544 -1040 0
v -528 -1040 0
v -832 -1072 0
v -848 -1072 0
v -848 -1056 0
v -832 -1056 0
v -656 -1072 0
v -672 -1072 0
v -672 -1056 0
v -656 -1056 0
v -576 -1072 0
v -592 -1072 0
v -592 -1056 0
v -576 -1056 0
v -528 -1072 0
v -544 -1072 0
v -544 -1056 0
v -528 -1056 0

# Texture cooridinates (Count = 184)
vt 0.2458678 0.6463878
vt 0.2623967 0.6463878
vt 0.2623967 0.6768061
vt 0.2458678 0.6768061
vt 0.2458678 0.6140684
vt 0.2623967 0.6140684
vt 0.2623967 0.6444867
vt 0.2458678 0.6444867
vt 0.9483471 0.2585551
vt 0.9648761 0.2585551
vt 0.9648761 0.2889734
vt 0.9483471 0.2889734
vt 0.3863636 0.6140684
vt 0.4028926 0.6140684
vt 0.4028926 0.6444867
vt 0.3863636 0.6444867
vt 0.5268595 0.6787072
vt 0.5433884 0.6787072
vt 0.5433884 0.7091255
vt 0.5268595 0.7091255
vt 0.4917355 0.6787072
vt 0.5082645 0.6787072
vt 0.5082645 0.7091255
vt 0.4917355 0.7091255
vt 0.8429752 0.8403042
vt 0.8595041 0.8403042
vt 0.8595041 0.8707224
vt 0.8429752 0.8707224
vt 0.8429752 0.7756654
vt 0.8595041 0.7756654
vt 0.8595041 0.8060837
vt 0.8429752 0.8060837
vt 0.9132231 0.5817491
vt 0.9297521 0.5817491
vt 0.9297521 0.6121673
vt 0.9132231 0.6121673
vt 0.8956612 0.5817491
vt 0.9121901 0.5817491
vt 0.9121901 0.6121673
vt 0.8956612 0.6121673
vt 0.9659091 0.2585551
vt 0.982438 0.2585551
vt 0.982438 0.2889734
vt 0.9659091 0.2889734
vt 0.5444215 0.6787072
vt 0.5609504 0.6787072
vt 0.5609504 0.7091255
vt 0.5444215 0.7091255
vt 0.5092975 0.6787072
vt 0.5258265 0.6787072
vt 0.5258265 0.7091255
vt 0.5092975 0.7091255
vt 0.4390496 0.6140684
vt 0.4555785 0.6140684
vt 0.4555785 0.6444867
vt 0.4390496 0.6444867
vt 0.4039256 0.6463878
vt 0.4204545 0.6463878
vt 0.4204545 0.6768061
vt 0.4039256 0.6768061
vt 0.4039256 0.6140684
vt 0.4204545 0.6140684
vt 0.4204545 0.6444867
vt 0.4039256 0.6444867
vt 0.1580579 0.4524715
vt 0.1745868 0.4524715
vt 0.1745868 0.4828897
vt 0.1580579 0.4828897
vt 0.1404959 0.4524715
vt 0.1570248 0.4524715
vt 0.1570248 0.4828897
vt 0.1404959 0.4828897
vt 0.1229339 0.4524715
vt 0.1394628 0.4524715
vt 0.1394628 0.4828897
vt 0.1229339 0.4828897
vt 0.1404959 0.4847909
vt 0.1570248 0.4847909
vt 0.1570248 0.5152091
vt 0.1404959 0.5152091
vt 0.1404959 0.4201521
vt 0.1570248 0.4201521
vt 0.1570248 0.4505703
vt 0.1404959 0.4505703
vt 0.1580579 0.6463878
vt 0.1745868 0.6463878
vt 0.1745868 0.6768061
vt 0.1580579 0.6768061
vt 0.1404959 0.6463878
vt 0.1570248 0.6463878
vt 0.1570248 0.6768061
vt 0.1404959 0.6768061
vt 0.1229339 0.6463878
vt 0.1394628 0.6463878
vt 0.1394628 0.6768061
vt 0.1229339 0.6768061
vt 0.2283058 0.6787072
vt 0.2448347 0.6787072
vt 0.2448347 0.7091255
vt 0.2283058 0.7091255
vt 0.8605372 0.6463878
vt 0.8770661 0.6463878
vt 0.8770661 0.6768061
vt 0.8605372 0.6768061
vt 0.8429752 0.6463878
vt 0.8595041 0.6463878
vt 0.8595041 0.6768061
vt 0.8429752 0.6768061
vt 0.2985537 0.743346
vt 0.3150826 0.743346
vt 0.3150826 0.7737643
vt 0.2985537 0.7737643
vt 0.8605372 0.6140684
vt 0.8770661 0.6140684
vt 0.8770661 0.6444867
vt 0.8605372 0.6444867
vt 0.8429752 0.6140684
vt 0.8595041 0.6140684
vt 0.8595041 0.6444867
vt 0.8429752 0.6444867
vt 0.2809917 0.743346
vt 0.2975207 0.743346
vt 0.2975207 0.7737643
vt 0.2809917 0.7737643
vt 0.9483471 0.6140684
vt 0.9648761 0.6140684
vt 0.9648761 0.6444867
vt 0.9483471 0.6444867
vt 0.8254132 0.6463878
vt 0.8419421 0.6463878
vt 0.8419421 0.6768061
vt 0.8254132 0.6768061
vt 0.8078513 0.6463878
vt 0.8243802 0.6463878
vt 0.8243802 0.6768061
vt 0.8078513 0.6768061
vt 0.4039256 0.9695817
vt 0.4204545 0.9695817
vt 0.4204545 1
vt 0.4039256 1
vt 0.9483471 0.5817491
vt 0.9648761 0.5817491
vt 0.9648761 0.6121673
vt 0.9483471 0.6121673
vt 0.8254132 0.6140684
vt 0.8419421 0.6140684
vt 0.8419421 0.6444867
vt 0.8254132 0.6444867
vt 0.8078513 0.6140684
vt 0.8243802 0.6140684
vt 0.8243802 0.6444867
vt 0.8078513 0.6444867
vt 0.3161157 0.6463878
vt 0.3326446 0.6463878
vt 0.3326446 0.6768061
vt 0.3161157 0.6768061
vt 0.2634298 0.7110266
vt 0.2799587 0.7110266
vt 0.2799587 0.7414448
vt 0.2634298 0.7414448
vt 0.3161157 0.8079848
vt 0.3326446 0.8079848
vt 0.3326446 0.838403
vt 0.3161157 0.838403
vt 0.4566116 0.743346
vt 0.4731405 0.743346
vt 0.4731405 0.7737643
vt 0.4566116 0.7737643
vt 0.3161157 0.6140684
vt 0.3326446 0.6140684
vt 0.3326446 0.6444867
vt 0.3161157 0.6444867
vt 0.4741735 0.904943
vt 0.4907025 0.904943
vt 0.4907025 0.9353612
vt 0.4741735 0.9353612
vt 0.3161157 0.743346
vt 0.3326446 0.743346
vt 0.3326446 0.7737643
vt 0.3161157 0.7737643
vt 0.9659091 0.6140684
vt 0.982438 0.6140684
vt 0.982438 0.6444867
vt 0.9659091 0.6444867

# Normal
vn 0 0 -1

# Mesh description
g Overworld_mesh_0021

# Faces
f 1/1/1 2/2/1 3/3/1 4/4/1
f 5/5/1 6/6/1 7/7/1 8/8/1
f 9/1/1 10/2/1 11/3/1 12/4/1
f 13/5/1 14/6/1 15/7/1 16/8/1
f 17/1/1 18/2/1 19/3/1 20/4/1
f 21/5/1 22/6/1 23/7/1 24/8/1
f 25/1/1 26/2/1 27/3/1 28/4/1
f 29/5/1 30/6/1 31/7/1 32/8/1
f 33/1/1 34/2/1 35/3/1 36/4/1
f 37/1/1 38/2/1 39/3/1 40/4/1
f 41/5/1 42/6/1 43/7/1 44/8/1
f 45/5/1 46/6/1 47/7/1 48/8/1
f 49/9/1 50/10/1 51/11/1 52/12/1
f 53/13/1 54/14/1 55/15/1 56/16/1
f 57/17/1 58/18/1 59/19/1 60/20/1
f 61/21/1 62/22/1 63/23/1 64/24/1
f 65/25/1 66/26/1 67/27/1 68/28/1
f 69/29/1 70/30/1 71/31/1 72/32/1
f 73/25/1 74/26/1 75/27/1 76/28/1
f 77/1/1 78/2/1 79/3/1 80/4/1
f 81/33/1 82/34/1 83/35/1 84/36/1
f 85/37/1 86/38/1 87/39/1 88/40/1
f 89/41/1 90/42/1 91/43/1 92/44/1
f 93/45/1 94/46/1 95/47/1 96/48/1
f 97/21/1 98/22/1 99/23/1 100/24/1
f 101/49/1 102/50/1 103/51/1 104/52/1
f 105/29/1 106/30/1 107/31/1 108/32/1
f 109/25/1 110/26/1 111/27/1 112/28/1
f 113/29/1 114/30/1 115/31/1 116/32/1
f 117/5/1 118/6/1 119/7/1 120/8/1
f 121/33/1 122/34/1 123/35/1 124/36/1
f 125/37/1 126/38/1 127/39/1 128/40/1
f 129/53/1 130/54/1 131/55/1 132/56/1
f 133/33/1 134/34/1 135/35/1 136/36/1
f 137/37/1 138/38/1 139/39/1 140/40/1
f 141/33/1 142/34/1 143/35/1 144/36/1
f 145/37/1 146/38/1 147/39/1 148/40/1
f 149/1/1 150/2/1 151/3/1 152/4/1
f 153/5/1 154/6/1 155/7/1 156/8/1
f 157/57/1 158/58/1 159/59/1 160/60/1
f 161/57/1 162/58/1 163/59/1 164/60/1
f 165/61/1 166/62/1 167/63/1 168/64/1
f 169/61/1 170/62/1 171/63/1 172/64/1
f 173/1/1 174/2/1 175/3/1 176/4/1
f 177/5/1 178/6/1 179/7/1 180/8/1
f 181/65/1 182/66/1 183/67/1 184/68/1
f 185/69/1 186/70/1 187/71/1 188/72/1
f 189/73/1 190/74/1 191/75/1 192/76/1
f 193/65/1 194/66/1 195/67/1 196/68/1
f 197/69/1 198/70/1 199/71/1 200/72/1
f 201/73/1 202/74/1 203/75/1 204/76/1
f 205/1/1 206/2/1 207/3/1 208/4/1
f 209/77/1 210/78/1 211/79/1 212/80/1
f 213/69/1 214/70/1 215/71/1 216/72/1
f 217/69/1 218/70/1 219/71/1 220/72/1
f 221/73/1 222/74/1 223/75/1 224/76/1
f 225/5/1 226/6/1 227/7/1 228/8/1
f 229/81/1 230/82/1 231/83/1 232/84/1
f 233/69/1 234/70/1 235/71/1 236/72/1
f 237/69/1 238/70/1 239/71/1 240/72/1
f 241/73/1 242/74/1 243/75/1 244/76/1
f 245/65/1 246/66/1 247/67/1 248/68/1
f 249/69/1 250/70/1 251/71/1 252/72/1
f 253/73/1 254/74/1 255/75/1 256/76/1
f 257/65/1 258/66/1 259/67/1 260/68/1
f 261/69/1 262/70/1 263/71/1 264/72/1
f 265/73/1 266/74/1 267/75/1 268/76/1
f 269/1/1 270/2/1 271/3/1 272/4/1
f 273/85/1 274/86/1 275/87/1 276/88/1
f 277/89/1 278/90/1 279/91/1 280/92/1
f 281/93/1 282/94/1 283/95/1 284/96/1
f 285/69/1 286/70/1 287/71/1 288/72/1
f 289/73/1 290/74/1 291/75/1 292/76/1
f 293/5/1 294/6/1 295/7/1 296/8/1
f 297/85/1 298/86/1 299/87/1 300/88/1
f 301/89/1 302/90/1 303/91/1 304/92/1
f 305/93/1 306/94/1 307/95/1 308/96/1
f 309/1/1 310/2/1 311/3/1 312/4/1
f 313/73/1 314/74/1 315/75/1 316/76/1
f 317/1/1 318/2/1 319/3/1 320/4/1
f 321/85/1 322/86/1 323/87/1 324/88/1
f 325/89/1 326/90/1 327/91/1 328/92/1
f 329/93/1 330/94/1 331/95/1 332/96/1
f 333/5/1 334/6/1 335/7/1 336/8/1
f 337/73/1 338/74/1 339/75/1 340/76/1
f 341/5/1 342/6/1 343/7/1 344/8/1
f 345/85/1 346/86/1 347/87/1 348/88/1
f 349/89/1 350/90/1 351/91/1 352/92/1
f 353/93/1 354/94/1 355/95/1 356/96/1
f 357/73/1 358/74/1 359/75/1 360/76/1
f 361/77/1 362/78/1 363/79/1 364/80/1
f 365/77/1 366/78/1 367/79/1 368/80/1
f 369/77/1 370/78/1 371/79/1 372/80/1
f 373/85/1 374/86/1 375/87/1 376/88/1
f 377/89/1 378/90/1 379/91/1 380/92/1
f 381/93/1 382/94/1 383/95/1 384/96/1
f 385/73/1 386/74/1 387/75/1 388/76/1
f 389/1/1 390/2/1 391/3/1 392/4/1
f 393/89/1 394/90/1 395/91/1 396/92/1
f 397/89/1 398/90/1 399/91/1 400/92/1
f 401/89/1 402/90/1 403/91/1 404/92/1
f 405/81/1 406/82/1 407/83/1 408/84/1
f 409/81/1 410/82/1 411/83/1 412/84/1
f 413/81/1 414/82/1 415/83/1 416/84/1
f 417/81/1 418/82/1 419/83/1 420/84/1
f 421/5/1 422/6/1 423/7/1 424/8/1
f 425/97/1 426/98/1 427/99/1 428/100/1
f 429/89/1 430/90/1 431/91/1 432/92/1
f 433/97/1 434/98/1 435/99/1 436/100/1
f 437/101/1 438/102/1 439/103/1 440/104/1
f 441/105/1 442/106/1 443/107/1 444/108/1
f 445/101/1 446/102/1 447/103/1 448/104/1
f 449/105/1 450/106/1 451/107/1 452/108/1
f 453/109/1 454/110/1 455/111/1 456/112/1
f 457/113/1 458/114/1 459/115/1 460/116/1
f 461/117/1 462/118/1 463/119/1 464/120/1
f 465/109/1 466/110/1 467/111/1 468/112/1
f 469/121/1 470/122/1 471/123/1 472/124/1
f 473/113/1 474/114/1 475/115/1 476/116/1
f 477/117/1 478/118/1 479/119/1 480/120/1
f 481/121/1 482/122/1 483/123/1 484/124/1
f 485/125/1 486/126/1 487/127/1 488/128/1
f 489/129/1 490/130/1 491/131/1 492/132/1
f 493/133/1 494/134/1 495/135/1 496/136/1
f 497/137/1 498/138/1 499/139/1 500/140/1
f 501/141/1 502/142/1 503/143/1 504/144/1
f 505/145/1 506/146/1 507/147/1 508/148/1
f 509/149/1 510/150/1 511/151/1 512/152/1
f 513/153/1 514/154/1 515/155/1 516/156/1
f 517/157/1 518/158/1 519/159/1 520/160/1
f 521/161/1 522/162/1 523/163/1 524/164/1
f 525/165/1 526/166/1 527/167/1 528/168/1
f 529/161/1 530/162/1 531/163/1 532/164/1
f 533/157/1 534/158/1 535/159/1 536/160/1
f 537/161/1 538/162/1 539/163/1 540/164/1
f 541/1/1 542/2/1 543/3/1 544/4/1
f 545/169/1 546/170/1 547/171/1 548/172/1
f 549/5/1 550/6/1 551/7/1 552/8/1
f 553/129/1 554/130/1 555/131/1 556/132/1
f 557/133/1 558/134/1 559/135/1 560/136/1
f 561/157/1 562/158/1 563/159/1 564/160/1
f 565/145/1 566/146/1 567/147/1 568/148/1
f 569/149/1 570/150/1 571/151/1 572/152/1
f 573/101/1 574/102/1 575/103/1 576/104/1
f 577/105/1 578/106/1 579/107/1 580/108/1
f 581/97/1 582/98/1 583/99/1 584/100/1
f 585/173/1 586/174/1 587/175/1 588/176/1
f 589/177/1 590/178/1 591/179/1 592/180/1
f 593/181/1 594/182/1 595/183/1 596/184/1
f 597/113/1 598/114/1 599/115/1 600/116/1
f 601/117/1 602/118/1 603/119/1 604/120/1
f 605/153/1 606/154/1 607/155/1 608/156/1
f 609/169/1 610/170/1 611/171/1 612/172/1
f 613/157/1 614/158/1 615/159/1 616/160/1
f 617/1/1 618/2/1 619/3/1 620/4/1
f 621/153/1 622/154/1 623/155/1 624/156/1
f 625/5/1 626/6/1 627/7/1 628/8/1
f 629/153/1 630/154/1 631/155/1 632/156/1
f 633/157/1 634/158/1 635/159/1 636/160/1
f 637/97/1 638/98/1 639/99/1 640/100/1
f 641/1/1 642/2/1 643/3/1 644/4/1
f 645/169/1 646/170/1 647/171/1 648/172/1
f 649/169/1 650/170/1 651/171/1 652/172/1
f 653/97/1 654/98/1 655/99/1 656/100/1
f 657/5/1 658/6/1 659/7/1 660/8/1

