# Tiled2Unity generated file. Do not modify by hand.
# Wavefront file for 'Overworld_mesh_0005.obj'

# Vertices (Count = 160)
v -432 -192 0
v -448 -192 0
v -448 -176 0
v -432 -176 0
v -416 -192 0
v -432 -192 0
v -432 -176 0
v -416 -176 0
v -432 -208 0
v -448 -208 0
v -448 -192 0
v -432 -192 0
v -416 -208 0
v -432 -208 0
v -432 -192 0
v -416 -192 0
v -592 -256 0
v -608 -256 0
v -608 -240 0
v -592 -240 0
v -576 -256 0
v -592 -256 0
v -592 -240 0
v -576 -240 0
v -560 -256 0
v -576 -256 0
v -576 -240 0
v -560 -240 0
v -544 -256 0
v -560 -256 0
v -560 -240 0
v -544 -240 0
v -528 -256 0
v -544 -256 0
v -544 -240 0
v -528 -240 0
v -512 -256 0
v -528 -256 0
v -528 -240 0
v -512 -240 0
v -592 -272 0
v -608 -272 0
v -608 -256 0
v -592 -256 0
v -576 -272 0
v -592 -272 0
v -592 -256 0
v -576 -256 0
v -560 -272 0
v -576 -272 0
v -576 -256 0
v -560 -256 0
v -544 -272 0
v -560 -272 0
v -560 -256 0
v -544 -256 0
v -528 -272 0
v -544 -272 0
v -544 -256 0
v -528 -256 0
v -512 -272 0
v -528 -272 0
v -528 -256 0
v -512 -256 0
v -592 -288 0
v -608 -288 0
v -608 -272 0
v -592 -272 0
v -576 -288 0
v -592 -288 0
v -592 -272 0
v -576 -272 0
v -560 -288 0
v -576 -288 0
v -576 -272 0
v -560 -272 0
v -544 -288 0
v -560 -288 0
v -560 -272 0
v -544 -272 0
v -528 -288 0
v -544 -288 0
v -544 -272 0
v -528 -272 0
v -512 -288 0
v -528 -288 0
v -528 -272 0
v -512 -272 0
v -592 -304 0
v -608 -304 0
v -608 -288 0
v -592 -288 0
v -576 -304 0
v -592 -304 0
v -592 -288 0
v -576 -288 0
v -560 -304 0
v -576 -304 0
v -576 -288 0
v -560 -288 0
v -544 -304 0
v -560 -304 0
v -560 -288 0
v -544 -288 0
v -528 -304 0
v -544 -304 0
v -544 -288 0
v -528 -288 0
v -512 -304 0
v -528 -304 0
v -528 -288 0
v -512 -288 0
v -592 -320 0
v -608 -320 0
v -608 -304 0
v -592 -304 0
v -576 -320 0
v -592 -320 0
v -592 -304 0
v -576 -304 0
v -560 -320 0
v -576 -320 0
v -576 -304 0
v -560 -304 0
v -544 -320 0
v -560 -320 0
v -560 -304 0
v -544 -304 0
v -528 -320 0
v -544 -320 0
v -544 -304 0
v -528 -304 0
v -512 -320 0
v -528 -320 0
v -528 -304 0
v -512 -304 0
v -592 -336 0
v -608 -336 0
v -608 -320 0
v -592 -320 0
v -576 -336 0
v -592 -336 0
v -592 -320 0
v -576 -320 0
v -560 -336 0
v -576 -336 0
v -576 -320 0
v -560 -320 0
v -544 -336 0
v -560 -336 0
v -560 -320 0
v -544 -320 0
v -528 -336 0
v -544 -336 0
v -544 -320 0
v -528 -320 0
v -512 -336 0
v -528 -336 0
v -528 -320 0
v -512 -320 0

# Texture cooridinates (Count = 52)
vt 0.8254132 0.6463878
vt 0.8419421 0.6463878
vt 0.8419421 0.6768061
vt 0.8254132 0.6768061
vt 0.8078513 0.6463878
vt 0.8243802 0.6463878
vt 0.8243802 0.6768061
vt 0.8078513 0.6768061
vt 0.8254132 0.6140684
vt 0.8419421 0.6140684
vt 0.8419421 0.6444867
vt 0.8254132 0.6444867
vt 0.8078513 0.6140684
vt 0.8243802 0.6140684
vt 0.8243802 0.6444867
vt 0.8078513 0.6444867
vt 0.07024793 0.8726236
vt 0.08677686 0.8726236
vt 0.08677686 0.9030418
vt 0.07024793 0.9030418
vt 0.05268595 0.8726236
vt 0.06921487 0.8726236
vt 0.06921487 0.9030418
vt 0.05268595 0.9030418
vt 0.03512397 0.8726236
vt 0.05165289 0.8726236
vt 0.05165289 0.9030418
vt 0.03512397 0.9030418
vt 0.07024793 0.8403042
vt 0.08677686 0.8403042
vt 0.08677686 0.8707224
vt 0.07024793 0.8707224
vt 0.05268595 0.8403042
vt 0.06921487 0.8403042
vt 0.06921487 0.8707224
vt 0.05268595 0.8707224
vt 0.03512397 0.8403042
vt 0.05165289 0.8403042
vt 0.05165289 0.8707224
vt 0.03512397 0.8707224
vt 0.07024793 0.8079848
vt 0.08677686 0.8079848
vt 0.08677686 0.838403
vt 0.07024793 0.838403
vt 0.05268595 0.8079848
vt 0.06921487 0.8079848
vt 0.06921487 0.838403
vt 0.05268595 0.838403
vt 0.03512397 0.8079848
vt 0.05165289 0.8079848
vt 0.05165289 0.838403
vt 0.03512397 0.838403

# Normal
vn 0 0 -1

# Mesh description
g Overworld_mesh_0005

# Faces
f 1/1/1 2/2/1 3/3/1 4/4/1
f 5/5/1 6/6/1 7/7/1 8/8/1
f 9/9/1 10/10/1 11/11/1 12/12/1
f 13/13/1 14/14/1 15/15/1 16/16/1
f 17/17/1 18/18/1 19/19/1 20/20/1
f 21/21/1 22/22/1 23/23/1 24/24/1
f 25/21/1 26/22/1 27/23/1 28/24/1
f 29/21/1 30/22/1 31/23/1 32/24/1
f 33/21/1 34/22/1 35/23/1 36/24/1
f 37/25/1 38/26/1 39/27/1 40/28/1
f 41/29/1 42/30/1 43/31/1 44/32/1
f 45/33/1 46/34/1 47/35/1 48/36/1
f 49/33/1 50/34/1 51/35/1 52/36/1
f 53/33/1 54/34/1 55/35/1 56/36/1
f 57/33/1 58/34/1 59/35/1 60/36/1
f 61/37/1 62/38/1 63/39/1 64/40/1
f 65/29/1 66/30/1 67/31/1 68/32/1
f 69/33/1 70/34/1 71/35/1 72/36/1
f 73/33/1 74/34/1 75/35/1 76/36/1
f 77/33/1 78/34/1 79/35/1 80/36/1
f 81/33/1 82/34/1 83/35/1 84/36/1
f 85/37/1 86/38/1 87/39/1 88/40/1
f 89/29/1 90/30/1 91/31/1 92/32/1
f 93/33/1 94/34/1 95/35/1 96/36/1
f 97/33/1 98/34/1 99/35/1 100/36/1
f 101/33/1 102/34/1 103/35/1 104/36/1
f 105/33/1 106/34/1 107/35/1 108/36/1
f 109/37/1 110/38/1 111/39/1 112/40/1
f 113/29/1 114/30/1 115/31/1 116/32/1
f 117/33/1 118/34/1 119/35/1 120/36/1
f 121/33/1 122/34/1 123/35/1 124/36/1
f 125/33/1 126/34/1 127/35/1 128/36/1
f 129/33/1 130/34/1 131/35/1 132/36/1
f 133/37/1 134/38/1 135/39/1 136/40/1
f 137/41/1 138/42/1 139/43/1 140/44/1
f 141/45/1 142/46/1 143/47/1 144/48/1
f 145/45/1 146/46/1 147/47/1 148/48/1
f 149/45/1 150/46/1 151/47/1 152/48/1
f 153/45/1 154/46/1 155/47/1 156/48/1
f 157/49/1 158/50/1 159/51/1 160/52/1

