# Tiled2Unity generated file. Do not modify by hand.
# Wavefront file for 'tryagail_mesh_0002.obj'

# Vertices (Count = 128)
v -64 -96 0
v -80 -96 0
v -80 -80 0
v -64 -80 0
v -48 -96 0
v -64 -96 0
v -64 -80 0
v -48 -80 0
v -32 -96 0
v -48 -96 0
v -48 -80 0
v -32 -80 0
v -64 -112 0
v -80 -112 0
v -80 -96 0
v -64 -96 0
v -48 -112 0
v -64 -112 0
v -64 -96 0
v -48 -96 0
v -32 -112 0
v -48 -112 0
v -48 -96 0
v -32 -96 0
v -64 -128 0
v -80 -128 0
v -80 -112 0
v -64 -112 0
v -48 -128 0
v -64 -128 0
v -64 -112 0
v -48 -112 0
v -32 -128 0
v -48 -128 0
v -48 -112 0
v -32 -112 0
v -480 -336 0
v -496 -336 0
v -496 -320 0
v -480 -320 0
v -480 -352 0
v -496 -352 0
v -496 -336 0
v -480 -336 0
v -480 -368 0
v -496 -368 0
v -496 -352 0
v -480 -352 0
v -480 -384 0
v -496 -384 0
v -496 -368 0
v -480 -368 0
v -480 -400 0
v -496 -400 0
v -496 -384 0
v -480 -384 0
v -464 -400 0
v -480 -400 0
v -480 -384 0
v -464 -384 0
v -448 -400 0
v -464 -400 0
v -464 -384 0
v -448 -384 0
v -480 -416 0
v -496 -416 0
v -496 -400 0
v -480 -400 0
v -464 -416 0
v -480 -416 0
v -480 -400 0
v -464 -400 0
v -480 -432 0
v -496 -432 0
v -496 -416 0
v -480 -416 0
v -464 -432 0
v -480 -432 0
v -480 -416 0
v -464 -416 0
v -480 -448 0
v -496 -448 0
v -496 -432 0
v -480 -432 0
v -480 -464 0
v -496 -464 0
v -496 -448 0
v -480 -448 0
v -480 -480 0
v -496 -480 0
v -496 -464 0
v -480 -464 0
v -480 -496 0
v -496 -496 0
v -496 -480 0
v -480 -480 0
v -480 -512 0
v -496 -512 0
v -496 -496 0
v -480 -496 0
v -480 -528 0
v -496 -528 0
v -496 -512 0
v -480 -512 0
v -480 -544 0
v -496 -544 0
v -496 -528 0
v -480 -528 0
v -480 -560 0
v -496 -560 0
v -496 -544 0
v -480 -544 0
v -480 -576 0
v -496 -576 0
v -496 -560 0
v -480 -560 0
v -480 -592 0
v -496 -592 0
v -496 -576 0
v -480 -576 0
v -448 -592 0
v -464 -592 0
v -464 -576 0
v -448 -576 0
v -480 -608 0
v -496 -608 0
v -496 -592 0
v -480 -592 0

# Texture cooridinates (Count = 52)
vt 0.4566116 0.2908745
vt 0.4731405 0.2908745
vt 0.4731405 0.3212928
vt 0.4566116 0.3212928
vt 0.4390496 0.2908745
vt 0.4555785 0.2908745
vt 0.4555785 0.3212928
vt 0.4390496 0.3212928
vt 0.4214876 0.2908745
vt 0.4380165 0.2908745
vt 0.4380165 0.3212928
vt 0.4214876 0.3212928
vt 0.4566116 0.2585551
vt 0.4731405 0.2585551
vt 0.4731405 0.2889734
vt 0.4566116 0.2889734
vt 0.4390496 0.2585551
vt 0.4555785 0.2585551
vt 0.4555785 0.2889734
vt 0.4390496 0.2889734
vt 0.4214876 0.2585551
vt 0.4380165 0.2585551
vt 0.4380165 0.2889734
vt 0.4214876 0.2889734
vt 0.4566116 0.2262357
vt 0.4731405 0.2262357
vt 0.4731405 0.256654
vt 0.4566116 0.256654
vt 0.4390496 0.2262357
vt 0.4555785 0.2262357
vt 0.4555785 0.256654
vt 0.4390496 0.256654
vt 0.4214876 0.2262357
vt 0.4380165 0.2262357
vt 0.4380165 0.256654
vt 0.4214876 0.256654
vt 0.1580579 0.4524715
vt 0.1745868 0.4524715
vt 0.1745868 0.4828897
vt 0.1580579 0.4828897
vt 0.1404959 0.4524715
vt 0.1570248 0.4524715
vt 0.1570248 0.4828897
vt 0.1404959 0.4828897
vt 0.1580579 0.5494297
vt 0.1745868 0.5494297
vt 0.1745868 0.5798479
vt 0.1580579 0.5798479
vt 0.1580579 0.4201521
vt 0.1745868 0.4201521
vt 0.1745868 0.4505703
vt 0.1580579 0.4505703

# Normal
vn 0 0 -1

# Mesh description
g tryagail_mesh_0002

# Faces
f 1/1/1 2/2/1 3/3/1 4/4/1
f 5/5/1 6/6/1 7/7/1 8/8/1
f 9/9/1 10/10/1 11/11/1 12/12/1
f 13/13/1 14/14/1 15/15/1 16/16/1
f 17/17/1 18/18/1 19/19/1 20/20/1
f 21/21/1 22/22/1 23/23/1 24/24/1
f 25/25/1 26/26/1 27/27/1 28/28/1
f 29/29/1 30/30/1 31/31/1 32/32/1
f 33/33/1 34/34/1 35/35/1 36/36/1
f 37/37/1 38/38/1 39/39/1 40/40/1
f 41/37/1 42/38/1 43/39/1 44/40/1
f 45/37/1 46/38/1 47/39/1 48/40/1
f 49/37/1 50/38/1 51/39/1 52/40/1
f 53/37/1 54/38/1 55/39/1 56/40/1
f 57/41/1 58/42/1 59/43/1 60/44/1
f 61/45/1 62/46/1 63/47/1 64/48/1
f 65/37/1 66/38/1 67/39/1 68/40/1
f 69/41/1 70/42/1 71/43/1 72/44/1
f 73/37/1 74/38/1 75/39/1 76/40/1
f 77/41/1 78/42/1 79/43/1 80/44/1
f 81/37/1 82/38/1 83/39/1 84/40/1
f 85/37/1 86/38/1 87/39/1 88/40/1
f 89/37/1 90/38/1 91/39/1 92/40/1
f 93/37/1 94/38/1 95/39/1 96/40/1
f 97/37/1 98/38/1 99/39/1 100/40/1
f 101/37/1 102/38/1 103/39/1 104/40/1
f 105/37/1 106/38/1 107/39/1 108/40/1
f 109/37/1 110/38/1 111/39/1 112/40/1
f 113/37/1 114/38/1 115/39/1 116/40/1
f 117/37/1 118/38/1 119/39/1 120/40/1
f 121/45/1 122/46/1 123/47/1 124/48/1
f 125/49/1 126/50/1 127/51/1 128/52/1

