# Tiled2Unity generated file. Do not modify by hand.
# Wavefront file for 'tryagail_mesh_0008.obj'

# Vertices (Count = 228)
v -368 -208 0
v -384 -208 0
v -384 -192 0
v -368 -192 0
v -176 -1024 0
v -192 -1024 0
v -192 -1008 0
v -176 -1008 0
v -160 -1024 0
v -176 -1024 0
v -176 -1008 0
v -160 -1008 0
v -144 -1024 0
v -160 -1024 0
v -160 -1008 0
v -144 -1008 0
v -128 -1024 0
v -144 -1024 0
v -144 -1008 0
v -128 -1008 0
v -112 -1024 0
v -128 -1024 0
v -128 -1008 0
v -112 -1008 0
v -176 -1040 0
v -192 -1040 0
v -192 -1024 0
v -176 -1024 0
v -160 -1040 0
v -176 -1040 0
v -176 -1024 0
v -160 -1024 0
v -144 -1040 0
v -160 -1040 0
v -160 -1024 0
v -144 -1024 0
v -128 -1040 0
v -144 -1040 0
v -144 -1024 0
v -128 -1024 0
v -112 -1040 0
v -128 -1040 0
v -128 -1024 0
v -112 -1024 0
v -64 -1040 0
v -80 -1040 0
v -80 -1024 0
v -64 -1024 0
v -48 -1040 0
v -64 -1040 0
v -64 -1024 0
v -48 -1024 0
v -176 -1056 0
v -192 -1056 0
v -192 -1040 0
v -176 -1040 0
v -96 -1056 0
v -112 -1056 0
v -112 -1040 0
v -96 -1040 0
v -80 -1056 0
v -96 -1056 0
v -96 -1040 0
v -80 -1040 0
v -64 -1056 0
v -80 -1056 0
v -80 -1040 0
v -64 -1040 0
v -48 -1056 0
v -64 -1056 0
v -64 -1040 0
v -48 -1040 0
v -32 -1056 0
v -48 -1056 0
v -48 -1040 0
v -32 -1040 0
v -288 -1072 0
v -304 -1072 0
v -304 -1056 0
v -288 -1056 0
v -272 -1072 0
v -288 -1072 0
v -288 -1056 0
v -272 -1056 0
v -256 -1072 0
v -272 -1072 0
v -272 -1056 0
v -256 -1056 0
v -240 -1072 0
v -256 -1072 0
v -256 -1056 0
v -240 -1056 0
v -80 -1072 0
v -96 -1072 0
v -96 -1056 0
v -80 -1056 0
v -32 -1072 0
v -48 -1072 0
v -48 -1056 0
v -32 -1056 0
v -288 -1088 0
v -304 -1088 0
v -304 -1072 0
v -288 -1072 0
v -272 -1088 0
v -288 -1088 0
v -288 -1072 0
v -272 -1072 0
v -256 -1088 0
v -272 -1088 0
v -272 -1072 0
v -256 -1072 0
v -240 -1088 0
v -256 -1088 0
v -256 -1072 0
v -240 -1072 0
v -112 -1088 0
v -128 -1088 0
v -128 -1072 0
v -112 -1072 0
v -32 -1088 0
v -48 -1088 0
v -48 -1072 0
v -32 -1072 0
v -288 -1104 0
v -304 -1104 0
v -304 -1088 0
v -288 -1088 0
v -272 -1104 0
v -288 -1104 0
v -288 -1088 0
v -272 -1088 0
v -256 -1104 0
v -272 -1104 0
v -272 -1088 0
v -256 -1088 0
v -240 -1104 0
v -256 -1104 0
v -256 -1088 0
v -240 -1088 0
v -32 -1104 0
v -48 -1104 0
v -48 -1088 0
v -32 -1088 0
v -288 -1120 0
v -304 -1120 0
v -304 -1104 0
v -288 -1104 0
v -272 -1120 0
v -288 -1120 0
v -288 -1104 0
v -272 -1104 0
v -256 -1120 0
v -272 -1120 0
v -272 -1104 0
v -256 -1104 0
v -240 -1120 0
v -256 -1120 0
v -256 -1104 0
v -240 -1104 0
v -32 -1120 0
v -48 -1120 0
v -48 -1104 0
v -32 -1104 0
v -176 -1136 0
v -192 -1136 0
v -192 -1120 0
v -176 -1120 0
v -160 -1136 0
v -176 -1136 0
v -176 -1120 0
v -160 -1120 0
v -144 -1136 0
v -160 -1136 0
v -160 -1120 0
v -144 -1120 0
v -128 -1136 0
v -144 -1136 0
v -144 -1120 0
v -128 -1120 0
v -112 -1136 0
v -128 -1136 0
v -128 -1120 0
v -112 -1120 0
v -96 -1136 0
v -112 -1136 0
v -112 -1120 0
v -96 -1120 0
v -80 -1136 0
v -96 -1136 0
v -96 -1120 0
v -80 -1120 0
v -32 -1136 0
v -48 -1136 0
v -48 -1120 0
v -32 -1120 0
v -176 -1152 0
v -192 -1152 0
v -192 -1136 0
v -176 -1136 0
v -160 -1152 0
v -176 -1152 0
v -176 -1136 0
v -160 -1136 0
v -144 -1152 0
v -160 -1152 0
v -160 -1136 0
v -144 -1136 0
v -128 -1152 0
v -144 -1152 0
v -144 -1136 0
v -128 -1136 0
v -112 -1152 0
v -128 -1152 0
v -128 -1136 0
v -112 -1136 0
v -96 -1152 0
v -112 -1152 0
v -112 -1136 0
v -96 -1136 0
v -80 -1152 0
v -96 -1152 0
v -96 -1136 0
v -80 -1136 0
v -128 -1168 0
v -144 -1168 0
v -144 -1152 0
v -128 -1152 0

# Texture cooridinates (Count = 80)
vt 0.3161157 0.6787072
vt 0.3326446 0.6787072
vt 0.3326446 0.7091255
vt 0.3161157 0.7091255
vt 0.3161157 0.6463878
vt 0.3326446 0.6463878
vt 0.3326446 0.6768061
vt 0.3161157 0.6768061
vt 0.3161157 0.6140684
vt 0.3326446 0.6140684
vt 0.3326446 0.6444867
vt 0.3161157 0.6444867
vt 0.8254132 0.6463878
vt 0.8419421 0.6463878
vt 0.8419421 0.6768061
vt 0.8254132 0.6768061
vt 0.8078513 0.6463878
vt 0.8243802 0.6463878
vt 0.8243802 0.6768061
vt 0.8078513 0.6768061
vt 0.9659091 0.5817491
vt 0.982438 0.5817491
vt 0.982438 0.6121673
vt 0.9659091 0.6121673
vt 0.9659091 0.6140684
vt 0.982438 0.6140684
vt 0.982438 0.6444867
vt 0.9659091 0.6444867
vt 0.8254132 0.6140684
vt 0.8419421 0.6140684
vt 0.8419421 0.6444867
vt 0.8254132 0.6444867
vt 0.8078513 0.6140684
vt 0.8243802 0.6140684
vt 0.8243802 0.6444867
vt 0.8078513 0.6444867
vt 0.07024793 0.9695817
vt 0.08677686 0.9695817
vt 0.08677686 1
vt 0.07024793 1
vt 0.05268595 0.9695817
vt 0.06921487 0.9695817
vt 0.06921487 1
vt 0.05268595 1
vt 0.03512397 0.9695817
vt 0.05165289 0.9695817
vt 0.05165289 1
vt 0.03512397 1
vt 0.9483471 0.6140684
vt 0.9648761 0.6140684
vt 0.9648761 0.6444867
vt 0.9483471 0.6444867
vt 0.07024793 0.9372624
vt 0.08677686 0.9372624
vt 0.08677686 0.9676806
vt 0.07024793 0.9676806
vt 0.05268595 0.9372624
vt 0.06921487 0.9372624
vt 0.06921487 0.9676806
vt 0.05268595 0.9676806
vt 0.03512397 0.9372624
vt 0.05165289 0.9372624
vt 0.05165289 0.9676806
vt 0.03512397 0.9676806
vt 0.2458678 0.7110266
vt 0.2623967 0.7110266
vt 0.2623967 0.7414448
vt 0.2458678 0.7414448
vt 0.07024793 0.904943
vt 0.08677686 0.904943
vt 0.08677686 0.9353612
vt 0.07024793 0.9353612
vt 0.05268595 0.904943
vt 0.06921487 0.904943
vt 0.06921487 0.9353612
vt 0.05268595 0.9353612
vt 0.03512397 0.904943
vt 0.05165289 0.904943
vt 0.05165289 0.9353612
vt 0.03512397 0.9353612

# Normal
vn 0 0 -1

# Mesh description
g tryagail_mesh_0008

# Faces
f 1/1/1 2/2/1 3/3/1 4/4/1
f 5/5/1 6/6/1 7/7/1 8/8/1
f 9/5/1 10/6/1 11/7/1 12/8/1
f 13/5/1 14/6/1 15/7/1 16/8/1
f 17/5/1 18/6/1 19/7/1 20/8/1
f 21/5/1 22/6/1 23/7/1 24/8/1
f 25/9/1 26/10/1 27/11/1 28/12/1
f 29/9/1 30/10/1 31/11/1 32/12/1
f 33/9/1 34/10/1 35/11/1 36/12/1
f 37/9/1 38/10/1 39/11/1 40/12/1
f 41/9/1 42/10/1 43/11/1 44/12/1
f 45/13/1 46/14/1 47/15/1 48/16/1
f 49/17/1 50/18/1 51/19/1 52/20/1
f 53/9/1 54/10/1 55/11/1 56/12/1
f 57/21/1 58/22/1 59/23/1 60/24/1
f 61/25/1 62/26/1 63/27/1 64/28/1
f 65/29/1 66/30/1 67/31/1 68/32/1
f 69/33/1 70/34/1 71/35/1 72/36/1
f 73/9/1 74/10/1 75/11/1 76/12/1
f 77/37/1 78/38/1 79/39/1 80/40/1
f 81/41/1 82/42/1 83/43/1 84/44/1
f 85/41/1 86/42/1 87/43/1 88/44/1
f 89/45/1 90/46/1 91/47/1 92/48/1
f 93/49/1 94/50/1 95/51/1 96/52/1
f 97/9/1 98/10/1 99/11/1 100/12/1
f 101/53/1 102/54/1 103/55/1 104/56/1
f 105/57/1 106/58/1 107/59/1 108/60/1
f 109/57/1 110/58/1 111/59/1 112/60/1
f 113/61/1 114/62/1 115/63/1 116/64/1
f 117/65/1 118/66/1 119/67/1 120/68/1
f 121/9/1 122/10/1 123/11/1 124/12/1
f 125/53/1 126/54/1 127/55/1 128/56/1
f 129/57/1 130/58/1 131/59/1 132/60/1
f 133/57/1 134/58/1 135/59/1 136/60/1
f 137/61/1 138/62/1 139/63/1 140/64/1
f 141/9/1 142/10/1 143/11/1 144/12/1
f 145/69/1 146/70/1 147/71/1 148/72/1
f 149/73/1 150/74/1 151/75/1 152/76/1
f 153/73/1 154/74/1 155/75/1 156/76/1
f 157/77/1 158/78/1 159/79/1 160/80/1
f 161/9/1 162/10/1 163/11/1 164/12/1
f 165/5/1 166/6/1 167/7/1 168/8/1
f 169/5/1 170/6/1 171/7/1 172/8/1
f 173/5/1 174/6/1 175/7/1 176/8/1
f 177/5/1 178/6/1 179/7/1 180/8/1
f 181/5/1 182/6/1 183/7/1 184/8/1
f 185/5/1 186/6/1 187/7/1 188/8/1
f 189/5/1 190/6/1 191/7/1 192/8/1
f 193/9/1 194/10/1 195/11/1 196/12/1
f 197/9/1 198/10/1 199/11/1 200/12/1
f 201/9/1 202/10/1 203/11/1 204/12/1
f 205/9/1 206/10/1 207/11/1 208/12/1
f 209/9/1 210/10/1 211/11/1 212/12/1
f 213/9/1 214/10/1 215/11/1 216/12/1
f 217/9/1 218/10/1 219/11/1 220/12/1
f 221/9/1 222/10/1 223/11/1 224/12/1
f 225/9/1 226/10/1 227/11/1 228/12/1

