# Tiled2Unity generated file. Do not modify by hand.
# Wavefront file for 'tryagail_mesh_0006.obj'

# Vertices (Count = 416)
v -672 -256 0
v -688 -256 0
v -688 -240 0
v -672 -240 0
v -656 -256 0
v -672 -256 0
v -672 -240 0
v -656 -240 0
v -608 -256 0
v -624 -256 0
v -624 -240 0
v -608 -240 0
v -592 -256 0
v -608 -256 0
v -608 -240 0
v -592 -240 0
v -672 -272 0
v -688 -272 0
v -688 -256 0
v -672 -256 0
v -656 -272 0
v -672 -272 0
v -672 -256 0
v -656 -256 0
v -608 -272 0
v -624 -272 0
v -624 -256 0
v -608 -256 0
v -592 -272 0
v -608 -272 0
v -608 -256 0
v -592 -256 0
v -608 -288 0
v -624 -288 0
v -624 -272 0
v -608 -272 0
v -592 -288 0
v -608 -288 0
v -608 -272 0
v -592 -272 0
v -576 -288 0
v -592 -288 0
v -592 -272 0
v -576 -272 0
v -608 -304 0
v -624 -304 0
v -624 -288 0
v -608 -288 0
v -592 -304 0
v -608 -304 0
v -608 -288 0
v -592 -288 0
v -576 -304 0
v -592 -304 0
v -592 -288 0
v -576 -288 0
v -608 -320 0
v -624 -320 0
v -624 -304 0
v -608 -304 0
v -592 -320 0
v -608 -320 0
v -608 -304 0
v -592 -304 0
v -576 -320 0
v -592 -320 0
v -592 -304 0
v -576 -304 0
v -608 -336 0
v -624 -336 0
v -624 -320 0
v -608 -320 0
v -592 -336 0
v -608 -336 0
v -608 -320 0
v -592 -320 0
v -576 -336 0
v -592 -336 0
v -592 -320 0
v -576 -320 0
v -560 -336 0
v -576 -336 0
v -576 -320 0
v -560 -320 0
v -544 -336 0
v -560 -336 0
v -560 -320 0
v -544 -320 0
v -528 -336 0
v -544 -336 0
v -544 -320 0
v -528 -320 0
v -512 -336 0
v -528 -336 0
v -528 -320 0
v -512 -320 0
v -608 -352 0
v -624 -352 0
v -624 -336 0
v -608 -336 0
v -592 -352 0
v -608 -352 0
v -608 -336 0
v -592 -336 0
v -576 -352 0
v -592 -352 0
v -592 -336 0
v -576 -336 0
v -560 -352 0
v -576 -352 0
v -576 -336 0
v -560 -336 0
v -544 -352 0
v -560 -352 0
v -560 -336 0
v -544 -336 0
v -528 -352 0
v -544 -352 0
v -544 -336 0
v -528 -336 0
v -512 -352 0
v -528 -352 0
v -528 -336 0
v -512 -336 0
v -320 -1040 0
v -336 -1040 0
v -336 -1024 0
v -320 -1024 0
v -320 -1056 0
v -336 -1056 0
v -336 -1040 0
v -320 -1040 0
v -1168 -1072 0
v -1184 -1072 0
v -1184 -1056 0
v -1168 -1056 0
v -1152 -1072 0
v -1168 -1072 0
v -1168 -1056 0
v -1152 -1056 0
v -1136 -1072 0
v -1152 -1072 0
v -1152 -1056 0
v -1136 -1056 0
v -1120 -1072 0
v -1136 -1072 0
v -1136 -1056 0
v -1120 -1056 0
v -1104 -1072 0
v -1120 -1072 0
v -1120 -1056 0
v -1104 -1056 0
v -1088 -1072 0
v -1104 -1072 0
v -1104 -1056 0
v -1088 -1056 0
v -1072 -1072 0
v -1088 -1072 0
v -1088 -1056 0
v -1072 -1056 0
v -1056 -1072 0
v -1072 -1072 0
v -1072 -1056 0
v -1056 -1056 0
v -320 -1072 0
v -336 -1072 0
v -336 -1056 0
v -320 -1056 0
v -1168 -1088 0
v -1184 -1088 0
v -1184 -1072 0
v -1168 -1072 0
v -1152 -1088 0
v -1168 -1088 0
v -1168 -1072 0
v -1152 -1072 0
v -1136 -1088 0
v -1152 -1088 0
v -1152 -1072 0
v -1136 -1072 0
v -1120 -1088 0
v -1136 -1088 0
v -1136 -1072 0
v -1120 -1072 0
v -1104 -1088 0
v -1120 -1088 0
v -1120 -1072 0
v -1104 -1072 0
v -1088 -1088 0
v -1104 -1088 0
v -1104 -1072 0
v -1088 -1072 0
v -1072 -1088 0
v -1088 -1088 0
v -1088 -1072 0
v -1072 -1072 0
v -1056 -1088 0
v -1072 -1088 0
v -1072 -1072 0
v -1056 -1072 0
v -320 -1088 0
v -336 -1088 0
v -336 -1072 0
v -320 -1072 0
v -1168 -1104 0
v -1184 -1104 0
v -1184 -1088 0
v -1168 -1088 0
v -1152 -1104 0
v -1168 -1104 0
v -1168 -1088 0
v -1152 -1088 0
v -1136 -1104 0
v -1152 -1104 0
v -1152 -1088 0
v -1136 -1088 0
v -1120 -1104 0
v -1136 -1104 0
v -1136 -1088 0
v -1120 -1088 0
v -1104 -1104 0
v -1120 -1104 0
v -1120 -1088 0
v -1104 -1088 0
v -1088 -1104 0
v -1104 -1104 0
v -1104 -1088 0
v -1088 -1088 0
v -1072 -1104 0
v -1088 -1104 0
v -1088 -1088 0
v -1072 -1088 0
v -1056 -1104 0
v -1072 -1104 0
v -1072 -1088 0
v -1056 -1088 0
v -320 -1104 0
v -336 -1104 0
v -336 -1088 0
v -320 -1088 0
v -1168 -1120 0
v -1184 -1120 0
v -1184 -1104 0
v -1168 -1104 0
v -1152 -1120 0
v -1168 -1120 0
v -1168 -1104 0
v -1152 -1104 0
v -1136 -1120 0
v -1152 -1120 0
v -1152 -1104 0
v -1136 -1104 0
v -1120 -1120 0
v -1136 -1120 0
v -1136 -1104 0
v -1120 -1104 0
v -1104 -1120 0
v -1120 -1120 0
v -1120 -1104 0
v -1104 -1104 0
v -1088 -1120 0
v -1104 -1120 0
v -1104 -1104 0
v -1088 -1104 0
v -1072 -1120 0
v -1088 -1120 0
v -1088 -1104 0
v -1072 -1104 0
v -1056 -1120 0
v -1072 -1120 0
v -1072 -1104 0
v -1056 -1104 0
v -320 -1120 0
v -336 -1120 0
v -336 -1104 0
v -320 -1104 0
v -1168 -1136 0
v -1184 -1136 0
v -1184 -1120 0
v -1168 -1120 0
v -1152 -1136 0
v -1168 -1136 0
v -1168 -1120 0
v -1152 -1120 0
v -1136 -1136 0
v -1152 -1136 0
v -1152 -1120 0
v -1136 -1120 0
v -1120 -1136 0
v -1136 -1136 0
v -1136 -1120 0
v -1120 -1120 0
v -1104 -1136 0
v -1120 -1136 0
v -1120 -1120 0
v -1104 -1120 0
v -1088 -1136 0
v -1104 -1136 0
v -1104 -1120 0
v -1088 -1120 0
v -1072 -1136 0
v -1088 -1136 0
v -1088 -1120 0
v -1072 -1120 0
v -1056 -1136 0
v -1072 -1136 0
v -1072 -1120 0
v -1056 -1120 0
v -320 -1136 0
v -336 -1136 0
v -336 -1120 0
v -320 -1120 0
v -1168 -1152 0
v -1184 -1152 0
v -1184 -1136 0
v -1168 -1136 0
v -1152 -1152 0
v -1168 -1152 0
v -1168 -1136 0
v -1152 -1136 0
v -1136 -1152 0
v -1152 -1152 0
v -1152 -1136 0
v -1136 -1136 0
v -1120 -1152 0
v -1136 -1152 0
v -1136 -1136 0
v -1120 -1136 0
v -1104 -1152 0
v -1120 -1152 0
v -1120 -1136 0
v -1104 -1136 0
v -1088 -1152 0
v -1104 -1152 0
v -1104 -1136 0
v -1088 -1136 0
v -1072 -1152 0
v -1088 -1152 0
v -1088 -1136 0
v -1072 -1136 0
v -1056 -1152 0
v -1072 -1152 0
v -1072 -1136 0
v -1056 -1136 0
v -320 -1152 0
v -336 -1152 0
v -336 -1136 0
v -320 -1136 0
v -1168 -1168 0
v -1184 -1168 0
v -1184 -1152 0
v -1168 -1152 0
v -1152 -1168 0
v -1168 -1168 0
v -1168 -1152 0
v -1152 -1152 0
v -1136 -1168 0
v -1152 -1168 0
v -1152 -1152 0
v -1136 -1152 0
v -1120 -1168 0
v -1136 -1168 0
v -1136 -1152 0
v -1120 -1152 0
v -1104 -1168 0
v -1120 -1168 0
v -1120 -1152 0
v -1104 -1152 0
v -1088 -1168 0
v -1104 -1168 0
v -1104 -1152 0
v -1088 -1152 0
v -1072 -1168 0
v -1088 -1168 0
v -1088 -1152 0
v -1072 -1152 0
v -1056 -1168 0
v -1072 -1168 0
v -1072 -1152 0
v -1056 -1152 0
v -320 -1168 0
v -336 -1168 0
v -336 -1152 0
v -320 -1152 0
v -1168 -1184 0
v -1184 -1184 0
v -1184 -1168 0
v -1168 -1168 0
v -1152 -1184 0
v -1168 -1184 0
v -1168 -1168 0
v -1152 -1168 0
v -1136 -1184 0
v -1152 -1184 0
v -1152 -1168 0
v -1136 -1168 0
v -1120 -1184 0
v -1136 -1184 0
v -1136 -1168 0
v -1120 -1168 0
v -1104 -1184 0
v -1120 -1184 0
v -1120 -1168 0
v -1104 -1168 0
v -1088 -1184 0
v -1104 -1184 0
v -1104 -1168 0
v -1088 -1168 0
v -1072 -1184 0
v -1088 -1184 0
v -1088 -1168 0
v -1072 -1168 0
v -1056 -1184 0
v -1072 -1184 0
v -1072 -1168 0
v -1056 -1168 0

# Texture cooridinates (Count = 92)
vt 0.8605372 0.6463878
vt 0.8770661 0.6463878
vt 0.8770661 0.6768061
vt 0.8605372 0.6768061
vt 0.8429752 0.6463878
vt 0.8595041 0.6463878
vt 0.8595041 0.6768061
vt 0.8429752 0.6768061
vt 0.07024793 0.8726236
vt 0.08677686 0.8726236
vt 0.08677686 0.9030418
vt 0.07024793 0.9030418
vt 0.05268595 0.8726236
vt 0.06921487 0.8726236
vt 0.06921487 0.9030418
vt 0.05268595 0.9030418
vt 0.8605372 0.6140684
vt 0.8770661 0.6140684
vt 0.8770661 0.6444867
vt 0.8605372 0.6444867
vt 0.8429752 0.6140684
vt 0.8595041 0.6140684
vt 0.8595041 0.6444867
vt 0.8429752 0.6444867
vt 0.07024793 0.8403042
vt 0.08677686 0.8403042
vt 0.08677686 0.8707224
vt 0.07024793 0.8707224
vt 0.05268595 0.8403042
vt 0.06921487 0.8403042
vt 0.06921487 0.8707224
vt 0.05268595 0.8707224
vt 0.03512397 0.8403042
vt 0.05165289 0.8403042
vt 0.05165289 0.8707224
vt 0.03512397 0.8707224
vt 0.07024793 0.8079848
vt 0.08677686 0.8079848
vt 0.08677686 0.838403
vt 0.07024793 0.838403
vt 0.05268595 0.8079848
vt 0.06921487 0.8079848
vt 0.06921487 0.838403
vt 0.05268595 0.838403
vt 0.03512397 0.8079848
vt 0.05165289 0.8079848
vt 0.05165289 0.838403
vt 0.03512397 0.838403
vt 0.3161157 0.6463878
vt 0.3326446 0.6463878
vt 0.3326446 0.6768061
vt 0.3161157 0.6768061
vt 0.1580579 0.6787072
vt 0.1745868 0.6787072
vt 0.1745868 0.7091255
vt 0.1580579 0.7091255
vt 0.1404959 0.6787072
vt 0.1570248 0.6787072
vt 0.1570248 0.7091255
vt 0.1404959 0.7091255
vt 0.1229339 0.6787072
vt 0.1394628 0.6787072
vt 0.1394628 0.7091255
vt 0.1229339 0.7091255
vt 0.1580579 0.6463878
vt 0.1745868 0.6463878
vt 0.1745868 0.6768061
vt 0.1580579 0.6768061
vt 0.1404959 0.6463878
vt 0.1570248 0.6463878
vt 0.1570248 0.6768061
vt 0.1404959 0.6768061
vt 0.1229339 0.6463878
vt 0.1394628 0.6463878
vt 0.1394628 0.6768061
vt 0.1229339 0.6768061
vt 0.3161157 0.6140684
vt 0.3326446 0.6140684
vt 0.3326446 0.6444867
vt 0.3161157 0.6444867
vt 0.1580579 0.6140684
vt 0.1745868 0.6140684
vt 0.1745868 0.6444867
vt 0.1580579 0.6444867
vt 0.1404959 0.6140684
vt 0.1570248 0.6140684
vt 0.1570248 0.6444867
vt 0.1404959 0.6444867
vt 0.1229339 0.6140684
vt 0.1394628 0.6140684
vt 0.1394628 0.6444867
vt 0.1229339 0.6444867

# Normal
vn 0 0 -1

# Mesh description
g tryagail_mesh_0006

# Faces
f 1/1/1 2/2/1 3/3/1 4/4/1
f 5/5/1 6/6/1 7/7/1 8/8/1
f 9/9/1 10/10/1 11/11/1 12/12/1
f 13/13/1 14/14/1 15/15/1 16/16/1
f 17/17/1 18/18/1 19/19/1 20/20/1
f 21/21/1 22/22/1 23/23/1 24/24/1
f 25/25/1 26/26/1 27/27/1 28/28/1
f 29/29/1 30/30/1 31/31/1 32/32/1
f 33/25/1 34/26/1 35/27/1 36/28/1
f 37/29/1 38/30/1 39/31/1 40/32/1
f 41/29/1 42/30/1 43/31/1 44/32/1
f 45/25/1 46/26/1 47/27/1 48/28/1
f 49/29/1 50/30/1 51/31/1 52/32/1
f 53/29/1 54/30/1 55/31/1 56/32/1
f 57/25/1 58/26/1 59/27/1 60/28/1
f 61/29/1 62/30/1 63/31/1 64/32/1
f 65/29/1 66/30/1 67/31/1 68/32/1
f 69/25/1 70/26/1 71/27/1 72/28/1
f 73/29/1 74/30/1 75/31/1 76/32/1
f 77/29/1 78/30/1 79/31/1 80/32/1
f 81/29/1 82/30/1 83/31/1 84/32/1
f 85/29/1 86/30/1 87/31/1 88/32/1
f 89/29/1 90/30/1 91/31/1 92/32/1
f 93/33/1 94/34/1 95/35/1 96/36/1
f 97/37/1 98/38/1 99/39/1 100/40/1
f 101/41/1 102/42/1 103/43/1 104/44/1
f 105/41/1 106/42/1 107/43/1 108/44/1
f 109/41/1 110/42/1 111/43/1 112/44/1
f 113/41/1 114/42/1 115/43/1 116/44/1
f 117/41/1 118/42/1 119/43/1 120/44/1
f 121/45/1 122/46/1 123/47/1 124/48/1
f 125/49/1 126/50/1 127/51/1 128/52/1
f 129/49/1 130/50/1 131/51/1 132/52/1
f 133/53/1 134/54/1 135/55/1 136/56/1
f 137/57/1 138/58/1 139/59/1 140/60/1
f 141/57/1 142/58/1 143/59/1 144/60/1
f 145/57/1 146/58/1 147/59/1 148/60/1
f 149/57/1 150/58/1 151/59/1 152/60/1
f 153/57/1 154/58/1 155/59/1 156/60/1
f 157/57/1 158/58/1 159/59/1 160/60/1
f 161/61/1 162/62/1 163/63/1 164/64/1
f 165/49/1 166/50/1 167/51/1 168/52/1
f 169/65/1 170/66/1 171/67/1 172/68/1
f 173/69/1 174/70/1 175/71/1 176/72/1
f 177/69/1 178/70/1 179/71/1 180/72/1
f 181/69/1 182/70/1 183/71/1 184/72/1
f 185/69/1 186/70/1 187/71/1 188/72/1
f 189/69/1 190/70/1 191/71/1 192/72/1
f 193/69/1 194/70/1 195/71/1 196/72/1
f 197/73/1 198/74/1 199/75/1 200/76/1
f 201/49/1 202/50/1 203/51/1 204/52/1
f 205/65/1 206/66/1 207/67/1 208/68/1
f 209/69/1 210/70/1 211/71/1 212/72/1
f 213/69/1 214/70/1 215/71/1 216/72/1
f 217/69/1 218/70/1 219/71/1 220/72/1
f 221/69/1 222/70/1 223/71/1 224/72/1
f 225/69/1 226/70/1 227/71/1 228/72/1
f 229/69/1 230/70/1 231/71/1 232/72/1
f 233/73/1 234/74/1 235/75/1 236/76/1
f 237/49/1 238/50/1 239/51/1 240/52/1
f 241/65/1 242/66/1 243/67/1 244/68/1
f 245/69/1 246/70/1 247/71/1 248/72/1
f 249/69/1 250/70/1 251/71/1 252/72/1
f 253/69/1 254/70/1 255/71/1 256/72/1
f 257/69/1 258/70/1 259/71/1 260/72/1
f 261/69/1 262/70/1 263/71/1 264/72/1
f 265/69/1 266/70/1 267/71/1 268/72/1
f 269/73/1 270/74/1 271/75/1 272/76/1
f 273/49/1 274/50/1 275/51/1 276/52/1
f 277/65/1 278/66/1 279/67/1 280/68/1
f 281/69/1 282/70/1 283/71/1 284/72/1
f 285/69/1 286/70/1 287/71/1 288/72/1
f 289/69/1 290/70/1 291/71/1 292/72/1
f 293/69/1 294/70/1 295/71/1 296/72/1
f 297/69/1 298/70/1 299/71/1 300/72/1
f 301/69/1 302/70/1 303/71/1 304/72/1
f 305/73/1 306/74/1 307/75/1 308/76/1
f 309/49/1 310/50/1 311/51/1 312/52/1
f 313/65/1 314/66/1 315/67/1 316/68/1
f 317/69/1 318/70/1 319/71/1 320/72/1
f 321/69/1 322/70/1 323/71/1 324/72/1
f 325/69/1 326/70/1 327/71/1 328/72/1
f 329/69/1 330/70/1 331/71/1 332/72/1
f 333/69/1 334/70/1 335/71/1 336/72/1
f 337/69/1 338/70/1 339/71/1 340/72/1
f 341/73/1 342/74/1 343/75/1 344/76/1
f 345/49/1 346/50/1 347/51/1 348/52/1
f 349/65/1 350/66/1 351/67/1 352/68/1
f 353/69/1 354/70/1 355/71/1 356/72/1
f 357/69/1 358/70/1 359/71/1 360/72/1
f 361/69/1 362/70/1 363/71/1 364/72/1
f 365/69/1 366/70/1 367/71/1 368/72/1
f 369/69/1 370/70/1 371/71/1 372/72/1
f 373/69/1 374/70/1 375/71/1 376/72/1
f 377/73/1 378/74/1 379/75/1 380/76/1
f 381/77/1 382/78/1 383/79/1 384/80/1
f 385/81/1 386/82/1 387/83/1 388/84/1
f 389/85/1 390/86/1 391/87/1 392/88/1
f 393/85/1 394/86/1 395/87/1 396/88/1
f 397/85/1 398/86/1 399/87/1 400/88/1
f 401/85/1 402/86/1 403/87/1 404/88/1
f 405/85/1 406/86/1 407/87/1 408/88/1
f 409/85/1 410/86/1 411/87/1 412/88/1
f 413/89/1 414/90/1 415/91/1 416/92/1

